<svg version="1.2" xmlns="http://www.w3.org/2000/svg" viewBox="0 0 810 175" width="810" height="175">
	<title>2-svg</title>
	<defs>
		<clipPath clipPathUnits="userSpaceOnUse" id="cp1">
			<path d="m152.8 41.84h130.2v126.59h-130.2z"/>
		</clipPath>
		<clipPath clipPathUnits="userSpaceOnUse" id="cp2">
			<path d="m0.08 41.84h130.12v126.59h-130.12z"/>
		</clipPath>
	</defs>
	<style>
		.s0 { fill: #da7a2d } 
	</style>
	<path id="Layer" class="s0" d="m50.8 87.6c0 0 75.3-5.1 75.9 75.9-81.1-0.5-75.9-75.9-75.9-75.9z"/>
	<path id="Layer" fill-rule="evenodd" class="s0" d="m131.1 167.9h-4.5c-26.1-0.2-46.4-7.9-60.4-22.9-21.8-23.6-19.9-56.3-19.8-57.7l0.3-3.8 3.8-0.3c0 0 1.1 0 3 0 12.8 0 77.1 3.8 77.5 80.3zm-75.9-76c0.3 8.9 2.5 30.9 17.6 47.1 11.4 12.3 28 19 49.4 20-2.6-60.1-49.7-66.7-67-67.1z"/>
	<path id="Layer" class="s0" d="m140.5 7.9c0 0 57 49.6 0 107.3-56.9-57.7 0-107.3 0-107.3z"/>
	<path id="Layer" fill-rule="evenodd" class="s0" d="m140.5 121.4l-3.1-3.1c-18.3-18.7-27.3-38.5-26.5-59 1.2-32.1 25.7-53.8 26.8-54.7l2.8-2.5 2.9 2.5c1.1 0.9 25.6 22.6 26.8 54.7 0.8 20.5-8.2 40.3-26.5 59zm0-107.4c-6.2 6.5-20.1 23.6-20.9 45.7-0.6 16.8 6.4 33.3 20.9 49.1 14.4-15.8 21.5-32.3 20.9-49.1-0.8-22.1-14.8-39.2-20.9-45.7z"/>
	<path id="Layer" class="s0" d="m232.4 87.6c0 0-75.3-5.1-75.8 75.9 81-0.5 75.8-75.9 75.8-75.9z"/>
	<path id="Layer" fill-rule="evenodd" class="s0" d="m152.1 167.9l0.1-4.4c0.5-76.5 64.7-80.3 77.6-80.3 1.9 0 2.9 0 2.9 0l3.8 0.3 0.3 3.8c0.1 1.4 2.1 34.1-19.8 57.7-13.9 15-34.3 22.7-60.4 22.9zm75.9-76c-17.3 0.4-64.4 7-67 67.1 21.4-1 38.1-7.7 49.5-20 15.1-16.3 17.3-38.2 17.5-47.1z"/>
	<g id="Clip-Path" clip-path="url(#cp1)">
		<g id="Layer">
			<path id="Layer" fill-rule="evenodd" class="s0" d="m282.5 128.7c-0.1 0.2-0.2 0.4-0.4 0.5 0 0 0 0 0 0q-0.1 0.1-0.2 0.1c-0.2 0.1-0.5 0.3-0.8 0.3-0.2 0.1-0.4 0.1-0.5 0.2-0.2 0.1-0.3 0.2-0.4 0.3-0.1 0-0.3 0.1-0.4 0.2q-0.2 0.3-0.4 0.5c-0.4 0.3-0.7 0.6-1 1-0.3 0.2-0.6 0.5-0.9 0.8q-0.4 0.4-0.9 0.7c-0.4 0.3-0.8 0.6-1.2 0.9-0.3 0.2-0.6 0.4-1 0.6q-0.5 0.2-1 0.5c-0.4 0.2-0.8 0.4-1.1 0.6-0.4 0.2-0.9 0.4-1.3 0.5-0.4 0.2-0.8 0.3-1.1 0.4q-0.6 0.2-1.1 0.3c-0.6 0.1-1.2 0.2-1.8 0.2-0.8 0.1-1.7 0-2.5-0.1q-0.6 0-1.3-0.1c-0.4-0.1-0.7-0.2-1.1-0.2-0.7-0.2-1.5-0.3-2.2-0.4-0.1 0-0.2 0-0.3 0-0.1 0-0.1 0-0.1 0-0.6-0.1-1.3-0.2-1.9-0.3q-0.8 0-1.6-0.2-0.6-0.2-1.3-0.3c-0.8-0.1-1.6 0-2.4 0.1q-0.8 0.2-1.6 0.4c-0.6 0.1-1.3 0.3-1.9 0.4-0.8 0.2-1.7 0.3-2.5 0.3-0.5 0-0.9-0.1-1.3-0.1-0.4 0-0.8 0-1.2-0.1q-0.7 0-1.4-0.2c-0.4-0.1-0.8-0.2-1.1-0.3-0.4-0.2-0.8-0.4-1.2-0.6q-0.6-0.2-1.1-0.5c-0.7-0.4-1.4-0.8-2-1.3q-0.5-0.4-0.9-0.8c-0.3-0.3-0.7-0.5-1-0.8-0.3-0.3-0.6-0.6-0.9-0.8-0.3-0.3-0.5-0.6-0.8-0.8-0.3-0.3-0.5-0.6-0.8-0.9-0.3-0.2-0.6-0.5-0.9-0.7-0.3-0.2-0.6-0.5-0.9-0.7q-0.4-0.2-0.8-0.4c-0.2-0.1-0.5-0.1-0.7-0.2q0 0-0.1 0c-0.1 0-0.2 0-0.3 0-0.5 0-1-0.1-1.4-0.2-0.5 0-1-0.1-1.4-0.1q-0.8 0-1.7 0c-0.5 0-1 0-1.6 0.1q-0.7 0.1-1.5 0.1c-0.6 0.1-1.3 0.2-2 0.4-0.6 0.1-1.3 0.3-2 0.5-0.7 0.2-1.4 0.4-2 0.6-0.7 0.2-1.3 0.4-1.9 0.7-0.9 0.4-1.8 0.8-2.7 1.4-0.5 0.3-0.9 0.6-1.4 0.8-0.5 0.3-1 0.5-1.4 0.8-0.7 0.4-1.4 0.8-2.2 1.1-0.3 0.2-0.8 0.4-1.1 0.5q-0.7 0.3-1.3 0.5c-0.1 0-0.2 0-0.3 0.1 0.1 0.3 0.3 0.6 0.4 1q0.3 0.5 0.6 1c0.3 0.4 0.6 0.7 0.8 1.1q0.3 0.3 0.6 0.6c0.2 0.2 0.4 0.4 0.7 0.5q0.4 0.3 0.9 0.5c0.2 0.2 0.5 0.2 0.8 0.4q0.7 0.2 1.6 0.3c0.5 0 1 0.1 1.5 0.2q0.2 0 0.4 0 0.3 0 0.5 0c0.4 0 0.8 0 1.1 0.1 0.4 0.1 0.7 0.2 1 0.3q0.4 0.2 0.7 0.3 0 0 0 0 0.3-0.1 0.6 0.1c0.1 0 0.2 0 0.3 0.1 0.1 0 0.2 0 0.3 0 0.1 0 0.2 0 0.2 0 0.5 0 1 0 1.5-0.1 0.7-0.2 1.4-0.4 2.2-0.7 0.8-0.3 1.6-0.4 2.5-0.6 0.3 0 0.7-0.1 1.1-0.2 0.4 0 0.7-0.1 1.1-0.1 0.4-0.1 0.8-0.1 1.2-0.2 0.2 0 0.4 0 0.5 0 0.2 0 0.5 0.1 0.7 0.1 0.8 0.1 1.5 0.1 2.3 0.2 0.8 0.2 1.7 0.5 2.5 0.8q0.5 0.1 1 0.4 0.3 0.1 0.6 0.3c0.2 0.1 0.3 0.1 0.5 0.2 0.7 0.5 1.3 1 2 1.6 0.6 0.5 1.2 1.1 1.7 1.7 0.5 0.5 1 1.1 1.5 1.7 0.4 0.4 0.8 0.9 1.3 1.3 0.4 0.3 0.8 0.6 1.2 0.9q0.5 0.4 1.1 0.6c0.3 0.2 0.6 0.3 1 0.4 0.7 0.2 1.4 0.5 2.1 0.7q0.7 0.2 1.3 0.4 0.6 0.2 1 0.5c0.8 0.4 1.4 0.9 2 1.5 0.3 0.3 0.6 0.6 0.9 1 0.2 0.3 0.4 0.6 0.6 0.9q0.6 1 1.1 2 0.3 0.5 0.6 1 0.3 0.3 0.6 0.7c0.1 0.1 0.2 0.3 0.4 0.4 0.1 0 0.2 0.1 0.3 0.2 0.1 0 0.2 0.1 0.4 0.2 0.1 0 0.1 0 0.2 0.1q0.2 0 0.3 0.1 0.1 0.1 0.2 0.3c0 0.1 0 0.2 0 0.2 0.1 0.2 0 0.5-0.2 0.6q0 0.1-0.2 0.2c-0.1 0-0.1 0-0.2 0.1-0.3 0.2-0.6 0.3-1 0.5-0.2 0-0.3 0.1-0.5 0.2-0.2 0.1-0.4 0.1-0.6 0.1-0.1 0.1-0.2 0.1-0.4 0.1-0.2 0.1-0.4 0.1-0.7 0.2-0.2 0-0.4 0.1-0.6 0.1-0.1 0-0.3 0-0.4 0-0.1 0.1-0.2 0.2-0.3 0.2q-0.6 0.1-1.2 0.4-0.6 0.2-1.2 0.4c-0.5 0.1-0.9 0.2-1.3 0.3-0.4 0-0.8 0.1-1.2 0.1-0.8 0.1-1.6 0.1-2.5 0.1-0.8 0-1.6-0.1-2.5-0.2-0.4 0-0.8-0.1-1.2-0.1-0.4-0.1-0.8-0.2-1.1-0.3-0.8-0.2-1.6-0.4-2.3-0.9-0.3-0.2-0.7-0.5-1-0.8-0.3-0.2-0.6-0.5-0.8-0.8-0.6-0.6-1.1-1.2-1.6-1.8-0.2-0.3-0.4-0.6-0.7-0.9-0.2-0.3-0.4-0.6-0.7-0.8q0 0 0 0c-0.5-0.6-1.1-1.2-1.6-1.7-0.6-0.5-1.1-1-1.7-1.5-0.3-0.1-0.6-0.3-0.8-0.4-0.3-0.2-0.6-0.3-0.8-0.4-0.5-0.1-1-0.3-1.5-0.4q-0.8-0.2-1.6-0.5c-0.5-0.2-1-0.4-1.5-0.6-0.2-0.1-0.4-0.3-0.7-0.4q-0.4-0.3-0.7-0.5-0.6-0.4-1.1-0.7c-0.3-0.2-0.5-0.5-0.7-0.7-0.3-0.4-0.6-0.7-0.9-1q-0.3-0.5-0.6-0.9c-0.4-0.7-0.8-1.4-1.2-2q-0.3-0.6-0.6-1.1c-0.1-0.3-0.2-0.6-0.4-0.9 0 0 0-0.1-0.1-0.1-0.1-0.1-0.2-0.2-0.3-0.3 0 0 0 0-0.1 0-0.2-0.1-0.3-0.2-0.5-0.3q-0.2-0.1-0.4-0.1-0.7-0.3-1.3-0.3-0.3 0-0.5 0c-0.1 0-0.3 0-0.5 0-0.4 0-0.8-0.1-1.2-0.2-0.7-0.1-1.5-0.1-2.2-0.3q-0.6-0.2-1.2-0.5c-0.1 0-0.3-0.1-0.5-0.2-0.1-0.1-0.3-0.2-0.5-0.3q-1.1-0.7-1.9-1.7c-0.5-0.6-1-1.2-1.3-1.9q-0.4-0.7-0.8-1.6c-0.2 0.1-0.3 0.1-0.5 0.1-0.8 0.1-1.6 0.2-2.4 0.2-0.8 0-1.6 0-2.4 0-0.4 0-0.8-0.1-1.2-0.1q-0.6 0-1.2 0c-0.7 0-1.5 0-2.3 0q-1.1 0.1-2.2 0.2c-0.3 0-0.7 0.1-1 0.1-0.3 0.1-0.7 0.1-1 0.2-0.4 0.1-0.7 0.2-1 0.3-0.3 0.1-0.6 0.2-0.9 0.3-0.6 0.3-1.2 0.5-1.8 0.9q-0.6 0.3-1 0.6c-0.3 0.1-0.6 0.3-0.9 0.5-0.3 0.3-0.6 0.6-0.9 0.9-0.3 0.3-0.7 0.7-1 1-0.3 0.3-0.6 0.6-1 0.9-0.2 0.3-0.5 0.5-0.8 0.7-0.2 0.3-0.4 0.7-0.6 1q-0.8 1.1-1.6 2.1-0.7 0.9-1.6 1.7c-0.3 0.3-0.7 0.6-1 0.8-0.3 0.3-0.7 0.6-1.1 0.8-0.6 0.5-1.3 1-2 1.4-0.6 0.5-1.2 1-1.9 1.4q-0.9 0.7-1.9 1.4c-0.2 0.1-0.4 0.3-0.7 0.5-0.6 0.5-1.1 1.1-1.7 1.6-0.6 0.6-1.2 1.1-1.8 1.6-0.6 0.6-1.2 1.1-1.7 1.7-0.3 0.4-0.6 0.7-0.9 1-0.2 0.3-0.4 0.6-0.7 0.9-0.1 0.2-0.3 0.4-0.5 0.7-0.2 0.2-0.3 0.5-0.5 0.8-0.4 0.5-0.8 1-1.1 1.6-0.4 0.5-0.7 1-1 1.6q-0.4 0.7-0.7 1.5c-0.2 0.4-0.3 0.9-0.5 1.4-0.1 0.4-0.5 0.6-0.9 0.5-0.4-0.1-0.7-0.5-0.6-0.9 0.1-0.4 0.2-0.8 0.4-1.1q0.2-0.5 0.4-1.1c0.2-0.3 0.3-0.6 0.5-0.9 0.1-0.4 0.3-0.7 0.5-1 0.3-0.6 0.7-1.2 1.1-1.8q0.3-0.4 0.6-0.9c0.2-0.3 0.4-0.5 0.6-0.8 0.5-0.7 1.1-1.4 1.6-2.1 0.6-0.6 1.1-1.2 1.7-1.7 0.6-0.6 1.2-1.1 1.8-1.6 0.6-0.5 1.1-1.1 1.7-1.6q1-0.9 2.1-1.7c0.6-0.5 1.3-0.9 1.9-1.4 0.7-0.5 1.4-1 2-1.4 0.6-0.5 1.3-0.9 1.9-1.4q1-0.7 1.8-1.5c0.6-0.6 1.1-1.2 1.6-1.9 0.2-0.2 0.4-0.4 0.5-0.7 0.2-0.3 0.4-0.5 0.6-0.8 0-0.1 0.1-0.2 0.2-0.3 0-0.2 0.1-0.3 0.2-0.4 0-0.1 0-0.1 0.1-0.1 0.1-0.3 0.3-0.6 0.5-0.9q0.6-1.1 1.2-2.3c0.4-0.7 0.8-1.4 1.1-2.1 0.8-1.5 1.5-2.9 2.3-4.3 0.3-0.8 0.7-1.5 1.1-2.2 0.2-0.3 0.4-0.6 0.6-1 0.2-0.3 0.3-0.7 0.5-1q0.6-1.1 1.3-2.1 0.8-1.1 1.5-2 0.8-0.9 1.5-1.8c0.2-0.3 0.5-0.6 0.7-0.8 0-0.2 0-0.3 0.1-0.4q0-0.1 0.1-0.2c0.1-0.1 0.1-0.2 0.2-0.3 0.1-0.1 0.2-0.2 0.2-0.3 0.1-0.1 0.2-0.2 0.2-0.3q0.2-0.3 0.3-0.6c0.3-0.7 0.6-1.4 0.7-2.1 0.2-0.7 0.3-1.5 0.4-2.3 0.1-0.7 0.2-1.3 0.2-2q0.1-1 0.2-2.1c0-0.7 0.1-1.4 0.3-2.2q0.1-1 0.4-1.9c0.3-0.9 0.5-1.7 0.9-2.4 0.1-0.4 0.2-0.7 0.4-1.1 0.2-0.3 0.5-0.7 0.7-1.1 0.3-0.4 0.6-0.9 0.9-1.4 0.1 0 0.1 0 0.1-0.1 0-0.1 0.1-0.2 0.1-0.4 0.2-0.4 0.2-0.9 0.3-1.4 0-0.5 0.1-1 0-1.5q0-0.7-0.1-1.4c-0.2-0.7-0.4-1.4-0.6-2.1-0.1-0.3-0.2-0.7-0.4-1-0.1-0.4-0.2-0.7-0.3-1.1-0.1-0.3-0.3-0.7-0.4-1.1-0.1-0.3-0.2-0.7-0.3-1.1-0.1-0.5-0.2-1.1-0.2-1.7-0.1 0-0.1-0.1-0.1-0.1-0.1-0.1-0.2-0.3-0.2-0.5q0-0.5 0-1c0-0.4 0-0.8-0.1-1.1q-0.1-1-0.2-2c-0.2-0.6-0.3-1.2-0.5-1.9-0.2-0.7-0.5-1.3-0.7-2q-0.3-1-0.5-2c-0.1-0.6-0.3-1.3-0.4-2 0-0.9-0.1-1.7-0.1-2.5 0.1-0.8 0.1-1.7 0.2-2.5 0.1-0.8 0.4-1.6 0.7-2.3 0.2-0.4 0.4-0.7 0.6-1 0.2-0.3 0.4-0.6 0.6-0.9q0.3-0.6 0.6-1.1c0.2-0.5 0.3-1 0.4-1.6 0.1-0.5 0.2-1 0.2-1.6 0.1-0.9 0.2-1.8 0.4-2.8 0-0.4 0.1-0.7 0.2-1.1 0.1-0.4 0.2-0.8 0.3-1.1 0.2-0.9 0.5-1.7 0.8-2.6 0.3-0.7 0.6-1.5 1-2.2 0.1-0.3 0.3-0.6 0.5-1 0.2-0.3 0.4-0.6 0.6-1 0.2-0.3 0.4-0.6 0.6-1 0.3-0.4 0.6-0.7 0.8-1.1 0.5-0.6 1.1-1.2 1.6-1.7 0.6-0.5 1.1-1.1 1.7-1.6q0.4-0.3 0.8-0.7c0.3-0.3 0.5-0.5 0.8-0.7 0.1-0.1 0.3-0.2 0.4-0.3 0-0.1 0-0.1 0.1-0.1q0.2-0.2 0.4-0.2 0.1 0 0.2 0c0.3 0.1 0.6 0.4 0.6 0.7 0 0.1 0 0.3 0 0.4-0.1 0.1-0.1 0.2-0.1 0.3-0.1 0.3-0.2 0.6-0.2 0.9-0.1 0.6-0.3 1.2-0.3 1.8-0.1 0.4-0.1 0.8-0.1 1.3q0.1 0.7 0.1 1.2 0.4 1.4 0.8 2.7c0.1 0.4 0.3 0.7 0.4 1.1 0.2 0.4 0.3 0.7 0.5 1.1q0.4 1.1 0.9 2.1 0.4 1.1 0.8 2.1c0.1 0.4 0.2 0.8 0.3 1.2 0.1 0.4 0.2 0.8 0.3 1.2 0.1 0.8 0.1 1.6 0 2.3q-0.2 0.6-0.3 1.2c-0.2 0.4-0.4 0.8-0.5 1.2q-0.5 1.1-0.9 2.3c-0.3 0.6-0.6 1.3-0.8 2-0.2 0.5-0.4 1.1-0.5 1.7-0.1 0.3-0.2 0.7-0.3 1.1-0.1 0.3-0.2 0.7-0.4 1.1q-0.1 0.6-0.4 1.2c-0.2 0.3-0.4 0.6-0.6 1-0.3 0.3-0.5 0.7-0.8 1.1-0.3 0.3-0.6 0.6-0.8 0.9q-0.4 0.5-0.8 0.8c-0.3 0.3-0.6 0.6-0.9 0.8-0.2 0.2-0.4 0.4-0.6 0.5-0.3 0.3-0.7 0.6-1 1-0.1 0.2-0.3 0.4-0.5 0.5-0.2 0.2-0.3 0.4-0.5 0.6q-0.5 0.6-1.1 1.1-0.3 0.4-0.7 0.9c-0.1 0.1-0.3 0.3-0.4 0.5q-0.1 0.3-0.3 0.5-0.3 0.5-0.6 1c0 0.2 0 0.3-0.1 0.4 0 0.1-0.1 0.3-0.1 0.4-0.1 0.1-0.1 0.1-0.2 0.2 0 0.1 0 0.2 0 0.3v0.1c0 0.4 0.1 0.9 0.1 1.4q0.2 1 0.5 1.8c0.1 0.7 0.4 1.3 0.6 1.9q0.2 0.5 0.4 1 0.1 0.6 0.3 1.1c0.2 0.7 0.3 1.5 0.4 2.3 0 0.4 0 0.8 0 1.2q0 0.1 0 0.3c0.5-0.6 1.1-1.2 1.6-1.7 0.6-0.6 1.2-1.1 1.8-1.7 0.5-0.5 1.1-1.1 1.6-1.7q0.5-0.4 0.9-0.9c0.2-0.3 0.5-0.5 0.7-0.8q0.4-0.5 0.8-1.1c0.2-0.4 0.5-0.8 0.7-1.3 0.3-0.4 0.5-0.9 0.7-1.4q0.3-0.7 0.6-1.4c0.3-0.5 0.6-0.9 0.9-1.4 0.2-0.4 0.5-0.7 0.8-1.1 0.5-0.7 1-1.4 1.5-2q0.8-1 1.7-1.9c0.4-0.6 1-1 1.5-1.5 0-0.2 0-0.4 0.1-0.5q0.3-0.4 0.6-0.8 0.1-0.2 0.3-0.5c0-0.2 0.1-0.4 0.2-0.6 0.1-0.3 0.2-0.6 0.2-0.9q0.2-0.6 0.2-1.1c0.1-0.3 0.1-0.7 0.2-1.1q0.1-0.6 0.2-1.2c0-0.3 0-0.7 0.1-1.1 0-0.8 0.1-1.6 0.2-2.3q0.1-0.6 0.2-1.1 0.2-0.6 0.3-1.1c0 0 0.1-0.1 0.1-0.1 0.1-0.6 0.3-1.1 0.5-1.6 0.2-0.6 0.4-1.1 0.7-1.6q0.2-0.5 0.5-1c0.2-0.4 0.4-0.7 0.6-1q0.3-0.6 0.7-1.1c0.3-0.3 0.6-0.5 0.9-0.8 0.6-0.4 1.3-0.8 1.9-1.2 0.5-0.4 1.1-0.8 1.6-1.3 0.3-0.3 0.6-0.7 1-1q0.5-0.6 1-1.3c0.6-0.8 1.2-1.6 1.9-2.3 0.5-0.6 1.1-1.2 1.7-1.7 0.6-0.6 1.2-1.1 1.8-1.6 0.6-0.5 1.3-0.9 1.9-1.3q1.1-0.7 2.2-1.2c0.4-0.2 0.7-0.3 1.1-0.5 0.4-0.1 0.7-0.2 1.1-0.3 0.8-0.3 1.5-0.5 2.3-0.7q1.2-0.4 2.4-0.6c0.7-0.1 1.4-0.1 2-0.3 0.1 0 0.1 0 0.1 0 0.1 0 0.2 0 0.3 0q0 0 0.1 0c0 0 0.1 0 0.2 0q0.3 0.2 0.4 0.5c0 0.1 0.1 0.2 0 0.4 0.1 0.2 0.1 0.3 0 0.5-0.3 0.7-0.6 1.3-0.9 1.9-0.1 0.3-0.3 0.6-0.4 0.9-0.1 0.3-0.2 0.5-0.2 0.7-0.3 0.9-0.4 1.9-0.6 2.8 0 0.5-0.1 1-0.1 1.5-0.1 0.5-0.1 0.9-0.1 1.3-0.1 0.9-0.3 1.7-0.6 2.4-0.1 0.4-0.3 0.8-0.4 1.2-0.2 0.3-0.3 0.7-0.5 1.1q-0.1 0.3-0.3 0.6-0.2 0.2-0.3 0.4-0.3 0.4-0.7 0.8c-0.5 0.5-1 1-1.4 1.6-0.2 0.3-0.4 0.6-0.5 1-0.2 0.4-0.4 0.7-0.5 1.1-0.2 0.4-0.3 0.8-0.4 1.1-0.2 0.4-0.3 0.8-0.6 1.1q-0.6 1.1-1.3 2.1c-0.4 0.6-0.9 1.2-1.4 1.7-0.3 0.4-0.6 0.7-1 1-0.3 0.3-0.6 0.5-0.9 0.8-0.7 0.5-1.4 1-2.1 1.4-0.4 0.2-0.8 0.3-1.2 0.5-0.3 0.2-0.7 0.4-1 0.5-0.8 0.2-1.6 0.4-2.5 0.5q-0.5 0-1 0-0.5 0-1.1 0.1c-0.3 0-0.7 0.1-1.1 0.2q-0.5 0.1-0.9 0.1c-0.5 0.1-0.9 0.3-1.3 0.4-0.4 0.2-0.8 0.3-1.2 0.5-0.2 0.2-0.3 0.3-0.5 0.4-0.2 0.1-0.5 0.3-0.7 0.4-0.2 0.1-0.3 0.3-0.5 0.4-0.2 0.2-0.4 0.3-0.6 0.5-0.1 0.1-0.3 0.2-0.5 0.4-0.2 0.1-0.3 0.2-0.5 0.4-0.2 0.1-0.4 0.3-0.6 0.5-0.1 0.1-0.2 0.1-0.3 0.2q-0.1 0.1-0.3 0.2-0.1 0.1-0.1 0.1-0.8 0.7-1.4 1.4c-0.6 0.6-1.1 1.3-1.7 1.9-0.3 0.5-0.6 0.9-1 1.4q-0.5 0.6-1 1.4c-0.1 0.3-0.3 0.5-0.5 0.8-0.1 0.2-0.2 0.4-0.3 0.7-0.2 0.4-0.4 0.7-0.5 1.1-0.3 0.7-0.7 1.4-1.1 2.1-0.4 0.8-0.9 1.4-1.4 2.1q-0.3 0.4-0.7 0.9-0.5 0.4-0.9 0.9c-0.6 0.5-1.2 1.1-1.7 1.7-0.6 0.6-1.1 1.1-1.7 1.7-1.2 1-2.2 2.3-3.2 3.5q-0.3 0.3-0.6 0.8c-0.2 0.3-0.4 0.6-0.6 0.9-0.2 0.4-0.4 0.7-0.6 1.1-0.1 0.3-0.3 0.6-0.4 0.8q-0.9 2.5-1.3 5.1c-0.1 0.5-0.1 0.9-0.1 1.3-0.1 0.5-0.1 0.9-0.1 1.4-0.1 0.8-0.2 1.6-0.3 2.4 0 0.4-0.1 0.9-0.2 1.3 0 0.4-0.1 0.8-0.2 1.2 0 0.2-0.1 0.4-0.2 0.6 0.4-0.3 0.8-0.7 1.2-1q0.4-0.5 0.9-0.9c0.3-0.2 0.6-0.5 0.9-0.8q0.9-0.8 1.9-1.5c0.7-0.4 1.3-0.8 2-1.2 0.7-0.4 1.4-0.7 2.1-1 0.8-0.4 1.5-0.7 2.3-1 0.8-0.3 1.5-0.6 2.2-0.9 0.8-0.2 1.5-0.5 2.2-0.7 0.7-0.2 1.4-0.4 2-0.6 0.5-0.2 0.9-0.5 1.3-0.7 0.2-0.1 0.4-0.2 0.6-0.3q0.3-0.2 0.6-0.3c0.9-0.5 1.8-1 2.6-1.6 0.4-0.3 0.8-0.7 1.2-1.1 0.4-0.4 0.8-0.9 1.2-1.3 0.5-0.4 0.9-0.8 1.3-1.2 0.4-0.5 0.8-0.9 1.2-1.3 0.3-0.3 0.5-0.6 0.8-0.8 0.3-0.3 0.7-0.6 1-0.8 0.6-0.5 1.3-1 2-1.4q1-0.5 1.9-0.9c0.7-0.4 1.4-0.7 2.1-1 0.1-0.2 0.1-0.3 0.2-0.4q0.3-0.2 0.5-0.5c0.3-0.3 0.5-0.7 0.7-1.1 0.3-0.4 0.5-0.8 0.7-1.2 0.2-0.5 0.4-1 0.6-1.5 0.2-0.5 0.4-1 0.6-1.5 0.3-0.8 0.6-1.5 1-2.3 0.3-0.7 0.7-1.4 1.1-2.1 0.4-0.7 0.8-1.4 1.3-2.1 0.6-0.6 1.1-1.3 1.7-1.9 0.6-0.6 1.2-1.1 1.9-1.6 0.7-0.4 1.5-0.7 2.3-1 0.7-0.3 1.4-0.5 2.2-0.7q0.6-0.1 1.2-0.3 0.6-0.1 1.1-0.4 0.4-0.1 0.8-0.3 0.4-0.2 0.9-0.5c0.5-0.4 1.1-0.8 1.6-1.2 0.3-0.2 0.7-0.5 1-0.7q0.6-0.5 1.2-0.9c0.4-0.3 0.9-0.5 1.3-0.8 0.4-0.2 0.8-0.4 1.2-0.6q2.2-1 4.6-1.8c0.7-0.2 1.5-0.4 2.2-0.5 0.4-0.1 0.8-0.2 1.2-0.2 0.4-0.1 0.8-0.1 1.2-0.2 0.1 0 0.1 0 0.2 0 0.9-0.1 1.7-0.2 2.6-0.2 0.2 0 0.5 0 0.8 0q0.2 0 0.4 0c0.4 0 0.9 0 1.3 0.1 0.7 0.1 1.5 0.3 2.2 0.4q0.5 0.1 1.1 0.3c0.3 0.1 0.6 0.3 1 0.4q0.7 0.3 1.5 0.5 0.8 0.3 1.7 0.5c0.2 0 0.4 0.2 0.5 0.3 0.1 0.2 0.1 0.4 0.1 0.6-0.1 0.2-0.2 0.4-0.4 0.5q0 0 0 0c0 0-0.1 0.1-0.1 0.1-0.1 0-0.3 0.1-0.4 0.2-0.1 0.1-0.3 0.3-0.4 0.5-0.3 0.4-0.5 0.8-0.7 1.2-0.1 0.3-0.2 0.6-0.3 0.9q-0.2 0.6-0.3 1.1-0.2 0.5-0.4 1c-0.3 0.8-0.6 1.5-1 2.2-0.3 0.7-0.7 1.4-1.1 2.1-0.4 0.7-0.9 1.4-1.4 2.1-0.2 0.3-0.5 0.6-0.8 0.9-0.3 0.3-0.8 0.6-1.1 0.8-0.4 0.2-0.8 0.4-1.1 0.6-0.4 0.2-0.8 0.3-1.1 0.5q-1.1 0.6-2.1 1.1-0.6 0.3-1.1 0.6c-0.4 0.2-0.7 0.4-1 0.6-0.2 0.2-0.4 0.4-0.6 0.6q-0.3 0.3-0.6 0.6c-0.4 0.4-0.8 0.9-1.2 1.3-0.4 0.5-0.8 0.9-1.3 1.3-0.2 0.2-0.4 0.4-0.6 0.6-0.3 0.2-0.5 0.4-0.8 0.6q-1 0.7-2.1 1.2-1.2 0.6-2.4 1c-0.7 0.3-1.5 0.6-2.3 0.7-0.8 0.1-1.7 0.2-2.6 0.3-0.4 0-0.7 0-1.1 0-0.5-0.1-0.9-0.1-1.4-0.2-0.8 0-1.6-0.2-2.5-0.3-0.7-0.2-1.5-0.2-2.3-0.4-0.7-0.1-1.5-0.3-2.3-0.4-0.5 0-1.2-0.1-1.8-0.1-0.7 0-1.4 0-2 0.1q-1 0.1-2 0.3c-0.3 0.1-0.6 0.2-0.9 0.3-0.3 0-0.7 0.2-1 0.3-0.1 0-0.1 0-0.2 0l-0.1 0.1c0 0 0 0-0.1 0l-0.2 0.1c-0.2 0.1-0.4 0.2-0.6 0.3-0.3 0.2-0.6 0.3-0.8 0.4q-0.6 0.3-1.3 0.6c-0.5 0.2-1 0.5-1.4 0.8-0.4 0.3-0.9 0.6-1.3 0.9-0.3 0.2-0.6 0.5-0.9 0.8-0.4 0.3-0.7 0.6-1 0.9-0.6 0.7-1.2 1.3-1.9 2q-0.4 0.4-0.9 0.9c-0.2 0.3-0.5 0.6-0.8 0.8-0.6 0.6-1.2 1.1-1.8 1.6q-1 0.6-2.1 1.2c-0.3 0.2-0.6 0.3-0.9 0.5q-0.6 0.3-1.1 0.6c-0.7 0.4-1.4 0.6-2.2 0.8-0.3 0.2-0.7 0.3-1.1 0.4-0.3 0.1-0.7 0.2-1 0.3-0.7 0.3-1.5 0.6-2.2 0.9-0.7 0.3-1.4 0.5-2.1 0.8-0.5 0.2-1 0.5-1.4 0.7-0.5 0.2-1 0.4-1.4 0.7-0.5 0.2-1 0.5-1.4 0.8-0.5 0.3-0.8 0.6-1.2 0.9-0.6 0.4-1.1 0.9-1.6 1.3-0.6 0.5-1.1 1-1.6 1.5-0.6 0.6-1.2 1.2-1.8 1.7-0.6 0.5-1.1 1.1-1.6 1.7q-1 1.2-2 2.4c0.4-0.2 0.8-0.3 1.2-0.3 0.4-0.1 0.8-0.1 1.2-0.2 0.1 0 0.3 0 0.4 0 0.6 0 1.3 0.1 1.9 0.2 0.3 0.1 0.7 0.1 1 0.2q0.6 0.2 1.2 0.5c0.4 0.2 0.7 0.5 1 0.7 0.4 0.3 0.7 0.5 1 0.8q0.4 0.5 0.9 0.9c0.3 0.3 0.5 0.6 0.8 1 0.2 0.3 0.4 0.6 0.6 0.9 0.2 0.3 0.4 0.7 0.6 1q0.3 0.6 0.6 1.2 0.2 0.5 0.4 1 0.3 0.5 0.5 1c0.2 0.4 0.3 0.7 0.5 1q0.2 0 0.4-0.1c0.6-0.2 1.1-0.4 1.7-0.6 0.8-0.4 1.7-0.8 2.5-1.3q1.2-0.6 2.4-1.3c0.7-0.4 1.4-0.9 2.2-1.2 0.8-0.4 1.5-0.7 2.3-1 1.5-0.5 3-1.1 4.5-1.4 0.8-0.2 1.5-0.4 2.3-0.5 0.5-0.1 1-0.2 1.4-0.2 0.4-0.1 0.8-0.1 1.2-0.1q1.2-0.1 2.4-0.1 0.3 0 0.5 0c0.2 0 0.4 0 0.7 0q0.5 0.1 1.1 0.2c0.4 0 0.8 0.1 1.2 0.1 0.1-0.1 0.2-0.1 0.2-0.1 0.1-0.1 0.2-0.1 0.2-0.1 0.1 0 0.3 0 0.4 0 0.4-0.1 0.8-0.2 1.2-0.3q0.6-0.1 1.2-0.3c0.5-0.2 0.9-0.5 1.3-0.7 0.4-0.3 0.7-0.5 1.1-0.8 0.9-0.5 1.7-1.1 2.5-1.7 0.3-0.2 0.6-0.4 1-0.6q0.5-0.3 1-0.6c0.8-0.3 1.5-0.6 2.3-0.8 0.8-0.2 1.6-0.4 2.3-0.6 0.8-0.3 1.6-0.4 2.3-0.6q0.7 0 1.4-0.1c0.3-0.1 0.6-0.1 0.9-0.1q0.1 0 0.2 0 0.6 0.1 1.3 0.2 0.5 0.1 1 0.2c0.4 0.1 0.7 0.3 1.1 0.4q0.4 0.1 1 0.3c0.7 0.2 1.5 0.3 2.3 0.5 0.7 0.1 1.4 0.1 2.1 0.1q0.6 0 1.1 0 0.4 0 0.9 0c0.7-0.1 1.5-0.3 2.2-0.5 0.4-0.1 0.8-0.1 1.2-0.2q0.6-0.2 1.2-0.3c0.8-0.1 1.6-0.2 2.5-0.2q0.3 0 0.6 0c0.2 0 0.5 0 0.7 0.1q0.5 0.1 1.1 0.2c0.7 0.3 1.5 0.5 2.2 0.7 0.7 0.3 1.4 0.7 2.1 1.1 0.3 0.2 0.7 0.4 1 0.6q0.5 0.3 1 0.6 1.1 0.6 2 1.4c0.5 0.4 1.1 0.8 1.6 1.3 0.5 0.4 0.9 0.8 1.4 1.2q0.4 0.3 0.9 0.6 0.3 0.3 0.7 0.4 0.2 0.1 0.3 0.2h0.1c0.2 0 0.3 0.2 0.4 0.3 0.1 0.2 0.2 0.4-0.3 0.4zm-50.6-37.1c0.2-0.2 0.3-0.4 0.5-0.6 0.3-0.2 0.6-0.5 0.8-0.8 0.3-0.2 0.6-0.5 0.9-0.8 0.5-0.5 1.2-1 1.8-1.3q1.1-0.6 2.1-1.1c0.4-0.1 0.7-0.2 1-0.3 0.4-0.2 0.8-0.2 1.1-0.3 0.8-0.2 1.5-0.4 2.2-0.6 0.8-0.2 1.5-0.4 2.2-0.6 0.8-0.2 1.5-0.5 2.3-0.7 0.7-0.2 1.5-0.4 2.2-0.6 0.4-0.1 0.8-0.3 1.1-0.4 0.4-0.1 0.8-0.2 1.1-0.4q0.6-0.2 1.2-0.4c0.3-0.1 0.6-0.3 1-0.4l0.1-0.1q0.4-0.1 0.8-0.3c0.3-0.1 0.6-0.3 1-0.5q1-0.4 1.9-1c0.6-0.3 1.3-0.7 1.9-1.1 0.3-0.2 0.6-0.3 0.8-0.5 0.3-0.2 0.6-0.5 0.9-0.7 0.1-0.1 0.3-0.2 0.5-0.4 0.6-0.5 1.1-1 1.7-1.5 0.7-0.5 1.4-1.1 2.1-1.6 0.3-0.2 0.6-0.4 0.9-0.6 0.3-0.2 0.7-0.4 1.1-0.6q1.1-0.5 2.2-1 0.5-0.2 1.1-0.4c0.4-0.1 0.7-0.2 1.1-0.3q0.1-0.1 0.2-0.1h-0.1c-0.2-0.1-0.5-0.2-0.8-0.3-0.6-0.3-1.2-0.4-1.8-0.6-0.6-0.1-1.1-0.3-1.7-0.4-0.8 0-1.5 0-2.3 0-0.7 0-1.4 0-2.2 0.1q-0.5 0.1-1 0.2c-0.6 0-1.2 0.1-1.8 0.3-0.6 0.1-1.2 0.2-1.8 0.4-1.2 0.4-2.4 0.9-3.5 1.3-0.8 0.3-1.5 0.6-2.2 1-0.4 0.2-0.8 0.4-1.1 0.7-0.4 0.2-0.7 0.4-1 0.6-0.6 0.5-1.2 1-1.8 1.4-0.7 0.5-1.3 0.9-2 1.3-0.2 0.1-0.4 0.1-0.5 0.2-0.3 0.1-0.5 0.2-0.7 0.3-0.4 0.2-0.8 0.3-1.2 0.4-0.7 0.2-1.5 0.4-2.3 0.6-0.7 0.3-1.3 0.5-2 0.8-0.3 0.1-0.6 0.2-0.9 0.4q-0.4 0.2-0.7 0.5c-0.8 0.7-1.5 1.5-2.2 2.3q-0.2 0.3-0.5 0.6c-0.2 0.3-0.3 0.5-0.5 0.8q-0.5 0.9-1 1.7c-0.2 0.5-0.5 1-0.8 1.6-0.2 0.5-0.4 1-0.7 1.6q-0.3 0.8-0.6 1.6c0 0.2-0.1 0.4-0.1 0.6zm-0.8 2.8c1-0.2 1.9-0.4 2.8-0.4 0.8-0.1 1.6 0 2.4 0q0.6 0.1 1.3 0.2c0.4 0.1 0.8 0.2 1.1 0.2 0.8 0.2 1.6 0.3 2.4 0.4 0.7 0.1 1.4 0.3 2.2 0.4q1.2 0.1 2.4 0.1 1.2 0 2.4-0.1 0.5-0.1 0.9-0.2 0.5 0 0.9-0.2c0.6-0.2 1.2-0.4 1.7-0.6 1.1-0.5 2.2-1.1 3.2-1.8 0.7-0.5 1.3-1 1.9-1.6 0.6-0.6 1.1-1.3 1.7-2 0.3-0.3 0.6-0.6 0.9-0.8 0.3-0.3 0.7-0.6 1-0.9 0.4-0.2 0.7-0.4 1.1-0.6 0.4-0.2 0.7-0.4 1.1-0.5 0.7-0.4 1.4-0.7 2.1-1.1 0.8-0.3 1.5-0.7 2.2-1.1 0.1-0.1 0.1-0.2 0.2-0.2 0.1-0.1 0.3-0.3 0.4-0.4 0.2-0.1 0.3-0.3 0.4-0.5 0.7-0.8 1.2-1.8 1.8-2.7 0.2-0.5 0.4-1 0.7-1.5 0.2-0.4 0.4-0.9 0.6-1.4q0.2-0.3 0.3-0.7 0.2-0.5 0.3-1c0.2-0.5 0.3-1.1 0.6-1.7 0.1-0.3 0.2-0.5 0.4-0.8-0.3 0-0.6 0.1-0.8 0.2-0.4 0.1-0.8 0.2-1.2 0.4-0.3 0.1-0.7 0.2-1 0.4q-0.6 0.2-1.2 0.5c-0.4 0.2-0.7 0.4-1.2 0.6-0.8 0.4-1.5 0.9-2.2 1.4-0.5 0.5-1 0.9-1.5 1.3q-0.7 0.7-1.5 1.3-0.6 0.5-1.3 1-0.7 0.4-1.4 0.9c-0.5 0.3-1 0.6-1.5 0.9q-0.7 0.4-1.5 0.7-0.5 0.3-1 0.6c-0.4 0.2-0.9 0.4-1.3 0.5-0.3 0.2-0.7 0.4-1.1 0.5-0.4 0.2-0.8 0.3-1.2 0.5-0.3 0.1-0.7 0.3-1.1 0.4-0.4 0.1-0.7 0.2-1.1 0.3-0.8 0.2-1.5 0.5-2.3 0.7-0.7 0.2-1.5 0.4-2.2 0.6-0.8 0.2-1.5 0.5-2.2 0.7-0.8 0.2-1.5 0.3-2.2 0.5-0.4 0.1-0.8 0.2-1.1 0.3q-0.4 0.2-0.9 0.3c-0.5 0.3-1 0.5-1.5 0.8q-0.4 0.2-0.7 0.4-0.3 0.2-0.7 0.4c-0.5 0.4-0.9 0.8-1.3 1.3-0.2 0.2-0.5 0.4-0.7 0.6-0.2 0.3-0.4 0.5-0.6 0.7-0.3 0.3-0.5 0.5-0.7 0.7-0.3 0.2-0.5 0.5-0.7 0.7q-0.2 0.2-0.5 0.4zm10.8-47.7q-0.5 0.3-1 0.7c-0.4 0.2-0.7 0.5-1 0.7-0.3 0.3-0.7 0.6-1 0.9-0.4 0.4-0.9 0.8-1.3 1.3-0.2 0.3-0.5 0.6-0.7 0.9q-0.3 0.4-0.5 0.7-0.3 0.5-0.5 1-0.3 0.5-0.6 1c-0.3 0.7-0.7 1.4-1 2q-0.5 1.1-1.2 2.1-0.5 0.8-1.1 1.6c-0.4 0.6-0.8 1.2-1.3 1.7-0.6 0.6-1.2 1.2-1.9 1.7-0.2 0.3-0.5 0.5-0.8 0.7q-0.5 0.3-0.9 0.6c-0.3 0.2-0.6 0.4-0.9 0.6-0.4 0.2-0.7 0.3-1.1 0.5q-0.9 0.5-1.7 1.1c-0.3 0.2-0.5 0.4-0.8 0.6q-0.4 0.3-0.7 0.6-0.9 0.9-1.7 1.9c-0.5 0.7-1 1.4-1.4 2.1-0.1 0.1-0.2 0.2-0.2 0.3q-0.4 0.6-0.7 1.2c-0.2 0.5-0.4 0.9-0.6 1.3-0.2 0.3-0.3 0.5-0.4 0.7 0.3-0.2 0.5-0.4 0.8-0.5q1-0.6 2.1-0.9c0.4-0.2 0.8-0.3 1.2-0.4q0.5-0.1 1.1-0.2c0.4-0.1 0.7-0.1 1.1-0.2 0.4 0 0.7 0 1 0q0.6 0 1.1-0.1c0.4 0 0.7-0.1 1.1-0.1 0.5-0.2 0.9-0.3 1.4-0.5 0.4-0.2 0.8-0.4 1.2-0.6 0.6-0.3 1.2-0.7 1.8-1.1q0.4-0.3 0.9-0.6c0.2-0.3 0.5-0.5 0.8-0.7 0.4-0.5 0.8-0.9 1.2-1.4q0.6-0.7 1.1-1.4c0.1-0.3 0.3-0.6 0.5-0.8q0.5-1.1 0.8-2.1 0.4-1.2 1-2.2c0.1-0.4 0.4-0.8 0.6-1.1 0.2-0.3 0.5-0.6 0.8-0.8q0.3-0.4 0.7-0.8 0.3-0.4 0.6-0.8c0.1-0.2 0.2-0.4 0.3-0.7q0.2-0.4 0.4-0.9c0.2-0.5 0.4-1 0.6-1.6q0.2-0.8 0.3-1.8c0-0.3 0-0.7 0.1-1.1q0-0.6 0.1-1.1 0.1-0.6 0.2-1.2c0.1-0.3 0.1-0.7 0.2-1.1 0.1-0.4 0.2-0.8 0.4-1.2 0.1-0.4 0.2-0.7 0.3-1-0.2 0.1-0.4 0.2-0.8 0.5zm-24.9 25.1c0.2-0.4 0.4-0.8 0.6-1.1 0.3-0.4 0.5-0.8 0.8-1.2q0.6-0.9 1.3-1.8c0.5-0.6 1-1.1 1.6-1.6q0.9-0.8 1.8-1.4 1-0.6 1.9-1.1c0.4-0.2 0.7-0.4 1.1-0.6 0.4-0.3 0.7-0.5 1.1-0.7 0.3-0.3 0.7-0.6 1-0.8 0.3-0.3 0.6-0.5 0.9-0.8 0.4-0.4 0.8-0.7 1.1-1.1 0.3-0.4 0.6-0.8 0.8-1.2 0.6-0.8 1.1-1.5 1.6-2.3 0.3-0.5 0.6-1 0.9-1.6 0.1-0.2 0.2-0.5 0.4-0.7 0.1-0.3 0.2-0.6 0.4-0.9 0.2-0.5 0.5-1.1 0.8-1.6q0.3-0.4 0.6-0.9c0.2-0.2 0.4-0.4 0.5-0.6q0.7-0.9 1.5-1.7c0.6-0.5 1.2-1.1 1.9-1.6q0.9-0.7 1.9-1.3 0.2-0.1 0.3-0.2-0.4 0.1-0.7 0.1-0.8 0.3-1.5 0.5-0.9 0.2-1.6 0.4c-0.5 0.2-1 0.3-1.4 0.5q-0.7 0.3-1.3 0.6c-0.9 0.5-1.7 1-2.5 1.6-0.4 0.2-0.7 0.5-1.1 0.8-0.3 0.3-0.6 0.6-0.9 0.8-0.6 0.6-1.2 1.2-1.8 1.8q-0.4 0.4-0.8 0.9c-0.2 0.3-0.4 0.6-0.7 0.9-0.4 0.6-0.9 1.3-1.5 1.9q-0.8 0.9-1.7 1.6-0.9 0.8-1.8 1.4c-0.6 0.4-1.2 0.7-1.7 1.2-0.3 0.3-0.6 0.6-0.8 1-0.2 0.3-0.4 0.7-0.6 1.1-0.2 0.4-0.4 0.8-0.6 1.2-0.3 0.8-0.7 1.7-1 2.5 0 0.1 0 0.2-0.1 0.3-0.1 0.5-0.3 1-0.4 1.6-0.1 0.5-0.2 1.1-0.2 1.7-0.1 0.3-0.1 0.7-0.1 1.1-0.1 0.4-0.1 0.8-0.2 1.1 0 0.1 0 0.2 0.2 0.2zm-14.5-22c-0.2 0.6-0.4 1.3-0.5 2q-0.2 0.9-0.3 2-0.1 0.6-0.1 1.2c0.1 0.5 0.1 0.9 0.2 1.3 0 0.3 0.1 0.6 0.2 0.9q0.1 0.6 0.1 1.2 0.1 1 0.2 2 0.1 1.1 0 2.3c0 0.4 0 0.7 0 1.1 0 0.5-0.1 0.9-0.2 1.3q0 0.3-0.1 0.6-0.1 0.3-0.2 0.6-0.2 0.6-0.4 1.2c-0.3 0.7-0.6 1.4-0.9 2.1-0.1 0.4-0.3 0.8-0.4 1.1-0.2 0.4-0.4 0.7-0.5 1-0.4 0.8-0.8 1.5-1.2 2.2q-0.3 0.6-0.6 1-0.3 0.5-0.6 1c-0.4 0.6-0.7 1.3-1 2-0.2 0.8-0.4 1.7-0.5 2.5q0 0.8-0.1 1.5c-0.1 0.3-0.1 0.6-0.1 0.8 0 0 0 0 0-0.1 0.2-0.3 0.4-0.6 0.7-0.8q0.2-0.3 0.5-0.6c0.3-0.3 0.5-0.5 0.7-0.8q0.3-0.3 0.7-0.7c0.2-0.2 0.4-0.5 0.6-0.7 0.2-0.2 0.4-0.4 0.7-0.6 0.2-0.2 0.4-0.4 0.7-0.6 0.1-0.2 0.2-0.3 0.4-0.4 0.2-0.2 0.4-0.4 0.6-0.6 0.2-0.2 0.5-0.4 0.7-0.7 0.2-0.3 0.5-0.5 0.7-0.8 0.2-0.3 0.3-0.5 0.5-0.8 0.2-0.2 0.4-0.5 0.5-0.8 0.2-0.2 0.3-0.5 0.4-0.8 0.1-0.3 0.2-0.6 0.3-0.8 0.2-0.8 0.4-1.6 0.6-2.3 0.1-0.4 0.3-0.8 0.3-1.1 0.2-0.4 0.4-0.9 0.6-1.3q0.2-0.5 0.4-1c0.1-0.4 0.3-0.8 0.5-1.1 0.1-0.4 0.3-0.8 0.4-1.1 0.2-0.4 0.3-0.7 0.4-1 0.2-0.5 0.3-1 0.4-1.5q0-0.9-0.1-1.8 0-0.1 0 0c-0.1-0.4-0.2-0.8-0.3-1.1-0.2-0.4-0.3-0.8-0.4-1.2-0.2-0.3-0.3-0.7-0.4-1q-0.3-0.6-0.5-1.1-0.4-1-0.9-2.1-0.2-0.6-0.5-1.1c0-0.2-0.1-0.4-0.1-0.5-0.1-0.2-0.2-0.4-0.2-0.6-0.2-0.8-0.5-1.6-0.6-2.4-0.1-0.4-0.1-0.7-0.2-1.1 0-0.3 0-0.6 0-0.9q0 0.2-0.1 0.4c-0.2 0.4-0.4 0.9-0.5 1.3-0.2 0.4-0.3 0.8-0.5 1.3zm-8.6 29.6c0.1 0.4 0.2 0.8 0.3 1.1 0.1-1 0.2-1.9 0.5-2.9 0.3-1 0.8-2.1 1.4-3q0.7-1 1.3-2c0.4-0.7 0.8-1.4 1.1-2.2q0.3-0.5 0.5-1c0.1-0.4 0.3-0.8 0.4-1.2 0.3-0.7 0.6-1.3 0.8-2q0.3-0.6 0.4-1.2 0.1-0.6 0.2-1.2c0-0.5 0-1 0-1.6 0-0.5 0-1 0-1.6 0-0.5-0.1-1-0.1-1.6-0.1-0.5-0.1-1-0.2-1.5 0-0.3-0.1-0.6-0.2-1-0.1-0.4-0.2-0.9-0.2-1.3q0-1.2 0.2-2.4c0-0.4 0.1-0.8 0.1-1.2 0.1-0.3 0.1-0.7 0.2-1.1 0.2-0.8 0.5-1.5 0.8-2.2 0.2-0.6 0.4-1.2 0.7-1.8q-0.5 0.6-1 1.1c-0.4 0.4-0.7 0.8-1 1.3-0.3 0.5-0.6 0.9-0.9 1.4-0.3 0.5-0.6 1.1-0.9 1.6-0.3 0.6-0.5 1.2-0.7 1.8-0.2 0.5-0.4 1-0.6 1.5q-0.5 1.4-0.8 3c-0.2 0.9-0.3 1.9-0.4 2.9q-0.1 1.5-0.5 3-0.1 0.3-0.2 0.7c-0.1 0.3-0.2 0.6-0.4 0.8-0.2 0.5-0.6 0.9-0.9 1.4-0.1 0.2-0.3 0.4-0.4 0.6q-0.2 0.5-0.4 0.9-0.2 0.5-0.3 1c0 0.4-0.1 0.8-0.1 1.2-0.1 1.5-0.1 3 0.1 4.5q0.2 1 0.5 2.1c0.1 0.3 0.2 0.7 0.3 1.1 0.1 0.4 0.3 0.7 0.4 1zm7.1 54.9q-0.3-0.7-0.6-1.4-0.4-0.9-0.9-1.9c-0.3-0.6-0.6-1.2-0.9-1.7q-0.3-0.5-0.6-0.9-0.3-0.3-0.6-0.7-0.9-1-2-1.7c-0.3-0.3-0.7-0.4-1.1-0.6-0.4-0.1-0.7-0.2-1.1-0.2q-0.6-0.1-1.3-0.2c-0.6 0-1.2 0.1-1.8 0.2-0.2 0-0.4 0.1-0.6 0.1-0.2 0.1-0.3 0.2-0.5 0.3-0.2 0.1-0.4 0.2-0.6 0.3-0.2 0.1-0.5 0.3-0.7 0.4q-0.6 0.5-1.1 0.9-0.1 0.1-0.2 0.1-0.1 0.3-0.2 0.5c-0.3 0.4-0.5 0.9-0.8 1.4-0.2 0.4-0.5 0.9-0.7 1.4q-0.6 1.1-1.2 2.1c-0.4 0.7-0.8 1.5-1.2 2.2-0.3 0.7-0.7 1.4-1.1 2.1-0.2 0.3-0.3 0.7-0.5 1q0.1 0 0.3-0.2 0.8-0.6 1.6-1.1 1-0.6 2.1-1.1 0.6-0.2 1.2-0.5c0.4-0.1 0.8-0.2 1.2-0.3 0.4-0.1 0.7-0.1 1.1-0.2 0.5 0 1-0.1 1.4-0.2 0.8-0.1 1.6-0.2 2.4-0.2 0.4 0 0.7 0.1 1.1 0.1 0.4 0 0.8 0 1.2 0 0.3 0 0.7 0 1.1 0 0.3 0 0.7 0.1 1.1 0.1 0.8 0 1.6 0 2.4 0 0.4 0 0.8 0 1.2 0 0.3-0.1 0.6-0.1 0.9-0.1zm16.8 9.1c0.6 0.6 1.3 1.1 2 1.6q0.3 0.2 0.7 0.4c0.3 0.2 0.6 0.3 0.9 0.4q0.8 0.2 1.6 0.4c0.6 0.2 1.2 0.2 1.8 0.3 0.7 0 1.4 0.1 2 0.2q0.6 0.1 1.1 0.3c0.3 0 0.6 0.1 0.9 0.2q1.2 0.4 2.2 0.9c0.6 0.3 1.3 0.7 1.9 1 0.3 0.2 0.7 0.5 1 0.7 0.4 0.2 0.8 0.5 1.2 0.8 0.6 0.4 1.1 1 1.7 1.5 0.5 0.6 1.1 1.1 1.6 1.7 0.2 0.3 0.5 0.6 0.8 0.9q0.4 0.4 0.7 0.8 0.7 0.8 1.6 1.4 0.2 0.1 0.4 0.2 0 0 0 0c0.1 0 0.1 0.1 0.2 0.1q0 0 0 0 0.2 0.1 0.4 0.3c0.1 0 0.2 0.1 0.3 0.1 0.3 0.2 0.6 0.4 0.9 0.5 0.3 0.1 0.6 0.2 0.9 0.3 0.4 0.2 0.7 0.3 1.1 0.4 0.4 0 0.7 0.1 1.1 0.2 0.4 0 0.8 0 1.2 0.1 0.4 0 0.7 0 1.1 0.1 0.3 0 0.7 0.1 1.1 0.1 0.6 0.1 1.3 0.1 2 0.2 0.2 0.1 0.4 0.1 0.6 0.1-0.1-0.2-0.2-0.3-0.4-0.5-0.2-0.3-0.4-0.6-0.6-0.9q-0.4-0.9-0.9-1.8-0.5-0.8-1.1-1.6c-0.2-0.3-0.5-0.6-0.8-0.8-0.4-0.3-0.7-0.6-1-0.8-0.3-0.2-0.5-0.3-0.8-0.5-0.2-0.1-0.5-0.2-0.7-0.3q-1.1-0.3-2-0.6c-0.4-0.1-0.9-0.2-1.3-0.4q-0.6-0.2-1.1-0.4-0.3-0.2-0.6-0.3c-0.2-0.2-0.4-0.3-0.6-0.4-0.3-0.3-0.6-0.5-0.9-0.7-1.3-1.1-2.3-2.4-3.3-3.6-0.5-0.5-1-0.9-1.5-1.4-0.5-0.4-1-0.8-1.6-1.2-0.7-0.4-1.5-0.7-2.3-1q-0.5-0.3-1-0.4c-0.4-0.1-0.8-0.2-1.2-0.2q-1-0.2-2.1-0.3c-0.8 0-1.7 0.1-2.6 0.2-0.4 0.1-0.8 0.2-1.3 0.2-0.4 0.1-0.8 0.1-1.2 0.2q-0.8 0.2-1.5 0.4-0.9 0.3-1.7 0.6c-0.3 0.1-0.6 0.1-0.9 0.3zm24.3 13.8c0 0 0 0 0 0q0 0 0 0zm-0.2-0.1q0.1 0 0.1 0.1 0-0.1-0.1-0.1zm0 0q0 0 0 0 0 0 0 0zm-24.5-11.8c0.1 0.2 0.3 0.5 0.4 0.8 0.5 0.7 0.9 1.3 1.5 2 0.2 0.2 0.4 0.5 0.6 0.7q0.5 0.3 0.9 0.7c0.5 0.3 1 0.6 1.5 0.9 0.3 0.1 0.6 0.2 0.9 0.4q0.4 0.1 0.7 0.3 0.3 0.1 0.6 0.2c0.7 0.2 1.5 0.4 2.2 0.6 0.4 0.1 0.8 0.3 1.2 0.5 0.4 0.2 0.8 0.4 1.1 0.6 0.7 0.5 1.2 1 1.8 1.6q0.9 0.8 1.6 1.7c0.3 0.3 0.5 0.5 0.8 0.8 0.2 0.3 0.4 0.6 0.6 0.9 0.4 0.5 0.8 1 1.3 1.5q0.8 0.9 1.8 1.7 0.2 0.1 0.5 0.3c0.3 0.1 0.5 0.1 0.7 0.2q0.5 0.2 1 0.3c0.4 0.1 0.9 0.2 1.3 0.2 0.7 0.1 1.5 0.2 2.3 0.3 0.8 0 1.5 0 2.3-0.1 0.4 0 0.7 0 1.1-0.1q0.5 0 0.9-0.1 0.9-0.2 1.6-0.5 0.2 0 0.3-0.1 0 0 0 0 0.2-0.3 0.5-0.4c0.2-0.1 0.4-0.1 0.7-0.2 0.1 0 0.3 0 0.5 0h-0.1c-0.3-0.1-0.7-0.1-1-0.1q-0.6-0.1-1.1-0.2c-0.7-0.1-1.5-0.1-2.3-0.2q-1.1-0.2-2.2-0.6c-0.4-0.2-0.8-0.3-1.1-0.5-0.4-0.2-0.7-0.4-1-0.6v0.1c-0.1-0.1-0.2-0.2-0.3-0.3q-0.1 0-0.2-0.1c-0.1-0.1-0.3-0.2-0.5-0.3q-0.4-0.3-0.9-0.7c-0.3-0.2-0.5-0.4-0.8-0.7-0.5-0.5-0.9-1-1.3-1.5-0.7-0.8-1.4-1.5-2.1-2.2-0.4-0.4-0.8-0.8-1.2-1.1-0.4-0.4-0.8-0.7-1.2-1-0.8-0.4-1.5-0.9-2.3-1.3-0.4-0.2-0.9-0.4-1.3-0.6-0.3-0.2-0.7-0.3-1.1-0.5-0.6-0.2-1.2-0.3-1.9-0.5-0.6-0.1-1.2-0.2-1.9-0.2-0.2 0-0.3-0.1-0.5-0.1-0.4 0-0.8 0-1.2-0.1-0.3-0.1-0.7-0.2-1.1-0.3-0.8-0.2-1.6-0.4-2.3-0.8-0.7-0.4-1.4-0.9-2-1.4-0.1-0.1-0.1-0.1-0.3 0.1zm23.9 13.2q0 0 0 0 0 0 0 0 0 0 0 0zm-0.1-0.1q0 0.1 0.1 0.1-0.1 0-0.1-0.1zm0.1 0.1q0 0 0 0 0 0 0 0zm-6.9-32.1c0.2-0.1 0.5-0.1 0.8-0.1 0.7 0 1.5 0 2.2 0 0.7 0 1.4 0.1 2.1 0.1 0.6 0 1.2 0.1 1.8 0.1 0.2 0.1 0.5 0.1 0.8 0.1 0.2 0 0.4 0.1 0.7 0.1 0.7 0 1.5-0.1 2.2-0.1q0.6 0 1.2-0.1c0.4 0 0.7-0.1 1-0.1 0.4-0.1 0.8-0.2 1.1-0.3h0.1q0 0 0.1 0 0.1 0 0.1 0c0.1 0 0.3-0.1 0.5-0.1 0.6-0.2 1.2-0.3 1.9-0.3q0 0 0.1 0 1.1 0 2.2 0.3c0.4 0.1 0.8 0.2 1.2 0.4 0.4 0.1 0.7 0.2 1.1 0.3 0.8 0.3 1.5 0.6 2.3 0.9 0.4 0.1 0.7 0.3 1.1 0.4 0.3 0.1 0.6 0.2 1 0.3q0.8 0.2 1.6 0.4c0.6 0.1 1.1 0.2 1.6 0.3 1.1 0.2 2.3 0.3 3.4 0.4q0.6 0 1.2 0c0.5 0 0.9 0 1.3-0.1 0.7-0.1 1.5-0.1 2.2-0.3 0.2 0 0.3 0 0.5-0.1 0.8-0.2 1.6-0.4 2.4-0.5 0.8-0.1 1.6-0.3 2.3-0.4 0.4 0 0.8-0.1 1.2-0.1 0.1-0.1 0.3-0.1 0.5-0.1 0.3 0 0.5 0 0.7 0 0.1 0.1 0.2 0.1 0.3 0.1-0.2-0.1-0.4-0.3-0.5-0.4q-0.6-0.5-1.2-1.1-0.6-0.5-1.2-1c-0.4-0.3-0.9-0.6-1.3-0.9-0.4-0.2-0.8-0.5-1.3-0.8q-0.7-0.4-1.3-0.8c-0.4-0.3-0.8-0.5-1.3-0.7-0.6-0.2-1.2-0.4-1.8-0.6q-0.5-0.1-0.9-0.3c-0.3-0.1-0.6-0.1-0.9-0.2-0.4 0-0.8 0-1.1 0-0.4 0-0.8 0-1.2 0.1-0.5 0-1 0.2-1.6 0.3-0.5 0.1-1.1 0.2-1.6 0.3-1.2 0.2-2.3 0.5-3.5 0.5q-0.6 0-1.2 0-0.6 0-1.2 0c-0.9-0.1-1.7-0.2-2.5-0.4-0.4-0.1-0.8-0.2-1.2-0.3-0.3-0.1-0.6-0.3-1-0.4-0.3-0.1-0.7-0.2-1-0.3q-0.5-0.1-0.9-0.2c-0.8-0.1-1.7 0-2.5 0.1-0.6 0.1-1.1 0.2-1.6 0.3-0.6 0.2-1.2 0.3-1.8 0.5-1.1 0.2-2.1 0.5-3.2 0.9q-0.5 0.2-1 0.5c-0.4 0.3-0.8 0.5-1.2 0.8-0.3 0.2-0.6 0.4-0.9 0.6-0.3 0.3-0.7 0.5-1 0.7-0.3 0.2-0.7 0.4-1 0.6-0.2 0.2-0.5 0.4-0.9 0.7zm44.8 3c-0.2-0.1-0.4-0.1-0.3-0.2q-0.3 0-0.6 0c-0.3 0.1-0.5 0.1-0.7 0.1-0.5 0.1-1 0.1-1.4 0.2-0.5 0.1-1 0.2-1.5 0.3-0.5 0-1 0.1-1.4 0.2-0.4 0.1-0.8 0.2-1.1 0.3-0.8 0.2-1.5 0.3-2.3 0.3-0.4 0-0.8 0.1-1.2 0.1-0.5 0-0.9 0-1.3 0q-0.7 0-1.4-0.1c-0.4 0-0.8 0-1.2-0.1q-1.2 0-2.4-0.3c-0.8-0.2-1.6-0.4-2.4-0.6q-1.2-0.4-2.4-0.8c-0.7-0.3-1.4-0.6-2.2-0.8-0.3-0.2-0.7-0.3-1.1-0.4-0.3-0.2-0.6-0.3-1-0.4q-0.4-0.1-0.9-0.2-0.4-0.1-0.9-0.1-0.6 0-1.2 0.2-0.3 0.1-0.6 0.1c-0.1 0.1-0.3 0.1-0.4 0.1q-0.1 0-0.1 0-0.1 0.1-0.1 0.1c-0.2 0-0.3 0-0.4 0.1-0.1 0-0.1 0-0.2 0-0.4 0.1-0.7 0.2-1.1 0.3-0.4 0.1-0.7 0.1-1.1 0.1-0.7 0.1-1.3 0.1-2 0.1q-1.2 0.1-2.3 0-0.4 0-0.9-0.1c-0.3 0-0.6-0.1-0.9-0.1q-0.6 0-1.2 0-0.5-0.1-1-0.1c-0.6 0-1.1 0-1.7 0q-0.4 0-0.9 0c-0.3 0-0.5 0.1-0.8 0.1-0.6 0-1.1 0.1-1.6 0.1 0.1 0.1 0.1 0.2 0.2 0.2 0.4 0.3 0.7 0.5 1 0.8 0.3 0.3 0.6 0.6 0.8 0.9 0.3 0.3 0.6 0.6 0.9 0.8 0.2 0.3 0.5 0.6 0.9 0.8 0.2 0.3 0.5 0.6 0.8 0.8 0.3 0.3 0.5 0.5 0.8 0.7 0.6 0.4 1.1 0.7 1.7 1.1q0.5 0.3 0.9 0.5c0.3 0.1 0.6 0.3 0.9 0.4q0.4 0.2 0.9 0.3 0.5 0.2 1 0.3c0.3 0 0.7 0.1 1 0.1 0.4 0 0.8 0 1.3 0 0.6 0 1.3 0 2-0.1 0.1 0 0.3 0 0.4 0 0.8-0.2 1.7-0.4 2.5-0.6 0.4-0.1 0.7-0.2 1.1-0.2 0.5-0.1 0.9-0.1 1.3-0.2q0.6 0 1.2 0c0.4 0 0.9 0 1.3 0.1 0.3 0.1 0.6 0.2 1 0.2 0.3 0.1 0.7 0.2 1.1 0.2 0.2 0.1 0.4 0.1 0.6 0.1q0 0-0.1 0c0.5 0.1 1 0.2 1.5 0.2q0 0 0 0 0.1 0 0.1 0 0.1 0 0.1 0c1.3 0.1 2.6 0.4 3.9 0.6q1 0.1 2 0.2c0.3 0 0.8 0 1.1 0q0.5 0.1 1.1 0c0.6-0.2 1.2-0.3 1.7-0.5q0.8-0.3 1.7-0.6c1.4-0.7 2.8-1.5 4.1-2.4q1-0.8 2-1.8c0.3-0.4 0.6-0.7 1-1 0.1-0.1 0.1-0.2 0.2-0.3q0.1 0 0.2-0.1zm-20.8 5.7q0 0 0.1 0 0 0-0.1 0z"/>
		</g>
	</g>
	<path id="Layer" class="s0" d="m195.6 85.6v0.1c0 0 0 0 0 0.1q0-0.1 0-0.2z"/>
	<path id="Layer" class="s0" d="m232.6 156.2l-0.1-0.1c0 0 0 0 0-0.1q0.1 0 0.1 0.2z"/>
	<g id="Clip-Path" clip-path="url(#cp2)">
		<g id="Layer">
			<path id="Layer" fill-rule="evenodd" class="s0" d="m0.2 128.3c0.1-0.1 0.3-0.3 0.5-0.3q0.2-0.1 0.4-0.2 0.3-0.1 0.7-0.4 0.5-0.3 0.9-0.6c0.5-0.4 0.9-0.8 1.4-1.2 0.5-0.5 1.1-0.9 1.6-1.3q0.9-0.8 2-1.4 0.5-0.3 1-0.6c0.3-0.2 0.7-0.4 1-0.6 0.7-0.4 1.4-0.8 2.1-1.1 0.7-0.2 1.5-0.4 2.2-0.7q0.5-0.1 1.1-0.2c0.2-0.1 0.5-0.1 0.7-0.1q0.3 0 0.6 0c0.8 0 1.6 0.1 2.4 0.2q0.6 0.1 1.2 0.3c0.4 0.1 0.8 0.1 1.2 0.2 0.8 0.2 1.5 0.4 2.3 0.5q0.4 0 0.9 0 0.5 0 1 0c0.7 0 1.5 0 2.2-0.1 0.7-0.2 1.5-0.3 2.3-0.5q0.5-0.2 1-0.3c0.3-0.1 0.7-0.3 1-0.4q0.6-0.1 1.1-0.2 0.7-0.1 1.3-0.2 0.1 0 0.2 0c0.3 0 0.6 0 0.9 0.1q0.7 0.1 1.4 0.1c0.7 0.2 1.5 0.3 2.3 0.6 0.7 0.2 1.5 0.4 2.3 0.6 0.8 0.2 1.5 0.5 2.3 0.8q0.5 0.3 1 0.6c0.4 0.2 0.7 0.4 1 0.6 0.8 0.6 1.6 1.2 2.4 1.7 0.4 0.3 0.8 0.5 1.2 0.8 0.4 0.2 0.8 0.5 1.2 0.7q0.6 0.2 1.2 0.3c0.4 0.1 0.9 0.2 1.3 0.3 0.1 0 0.2 0 0.3 0 0.1 0 0.2 0 0.2 0.1 0.1 0 0.2 0 0.2 0.1 0.4 0 0.9-0.1 1.3-0.1h-0.1q0.6-0.1 1.2-0.2c0.2 0 0.4 0 0.7 0q0.2 0 0.5 0 1.2 0 2.4 0.1c0.4 0 0.8 0 1.1 0.1 0.5 0 1 0.1 1.4 0.2 0.9 0.1 1.6 0.3 2.4 0.5 1.5 0.3 3 0.9 4.5 1.4 0.8 0.3 1.5 0.6 2.3 1 0.8 0.3 1.5 0.8 2.2 1.2q1.2 0.7 2.4 1.3c0.8 0.5 1.6 0.9 2.5 1.3 0.5 0.2 1 0.4 1.6 0.6q0.3 0.1 0.5 0.1c0.1-0.3 0.3-0.6 0.5-1q0.2-0.5 0.4-1 0.3-0.5 0.5-1 0.3-0.6 0.6-1.2c0.2-0.3 0.3-0.7 0.5-1 0.2-0.3 0.4-0.6 0.7-0.9 0.2-0.4 0.5-0.7 0.8-1q0.4-0.4 0.9-0.9c0.3-0.3 0.6-0.5 0.9-0.8 0.4-0.2 0.7-0.5 1.1-0.7q0.6-0.3 1.2-0.5c0.3-0.1 0.6-0.1 0.9-0.2 0.7-0.1 1.3-0.2 2-0.2 0.1 0 0.2 0 0.3 0 0.4 0.1 0.8 0.1 1.2 0.2 0.4 0 0.9 0.1 1.3 0.3q-1-1.2-2-2.4c-0.5-0.6-1.1-1.2-1.6-1.7-0.6-0.5-1.2-1.1-1.8-1.7-0.6-0.5-1.1-1-1.6-1.5-0.6-0.4-1.1-0.9-1.6-1.3-0.4-0.3-0.8-0.6-1.2-0.9-0.5-0.3-1-0.6-1.4-0.8-0.5-0.3-0.9-0.5-1.4-0.7-0.5-0.2-1-0.5-1.5-0.7-0.6-0.3-1.3-0.5-2-0.8-0.7-0.3-1.5-0.6-2.2-0.9-0.3-0.1-0.7-0.2-1-0.3-0.4-0.1-0.8-0.2-1.1-0.4-0.8-0.2-1.5-0.4-2.2-0.8q-0.6-0.3-1.1-0.6c-0.3-0.2-0.6-0.3-0.9-0.5q-1.1-0.6-2.1-1.2c-0.6-0.5-1.2-1-1.8-1.6-0.3-0.2-0.6-0.5-0.8-0.8q-0.5-0.5-0.9-0.9c-0.7-0.7-1.3-1.3-2-2-0.3-0.3-0.6-0.6-0.9-0.9-0.3-0.3-0.6-0.6-1-0.8-0.4-0.3-0.8-0.6-1.2-0.9-0.5-0.3-1-0.6-1.4-0.8q-0.7-0.3-1.3-0.6c-0.3-0.1-0.6-0.2-0.8-0.4-0.2-0.1-0.5-0.2-0.7-0.3l-0.2-0.1c0 0 0-0.1-0.1-0.1h-0.1c0 0-0.1 0-0.2 0-0.3-0.1-0.6-0.3-0.9-0.3-0.3-0.2-0.7-0.2-1-0.3q-0.9-0.2-1.9-0.3c-0.7-0.1-1.4-0.1-2-0.1-0.6 0-1.3 0-1.9 0.1-0.7 0.1-1.5 0.3-2.2 0.4-0.8 0.2-1.6 0.2-2.3 0.4-0.9 0.1-1.7 0.3-2.5 0.3-0.5 0.1-0.9 0.1-1.4 0.2-0.4 0-0.7 0-1.1 0-0.9-0.1-1.8-0.2-2.6-0.3-0.8-0.1-1.6-0.4-2.4-0.7q-1.2-0.4-2.4-1-1-0.5-2-1.2c-0.3-0.2-0.6-0.4-0.8-0.6-0.2-0.2-0.4-0.4-0.7-0.6-0.4-0.4-0.9-0.8-1.3-1.3-0.4-0.4-0.7-0.9-1.1-1.3q-0.3-0.3-0.6-0.6c-0.2-0.2-0.4-0.4-0.7-0.6-0.3-0.2-0.6-0.4-0.9-0.6q-0.5-0.3-1.1-0.6-1.1-0.5-2.1-1.1c-0.4-0.2-0.8-0.3-1.1-0.5-0.4-0.2-0.7-0.4-1.1-0.6-0.4-0.2-0.8-0.5-1.1-0.8-0.3-0.3-0.6-0.6-0.8-0.9-0.5-0.7-1-1.4-1.4-2.1-0.4-0.7-0.8-1.4-1.1-2.1-0.4-0.7-0.7-1.4-1-2.2q-0.2-0.5-0.4-1-0.1-0.5-0.3-1.1c-0.1-0.3-0.2-0.6-0.3-0.9-0.2-0.4-0.4-0.8-0.7-1.2-0.1-0.2-0.3-0.4-0.4-0.5-0.1-0.1-0.3-0.2-0.4-0.2 0 0-0.1-0.1-0.1-0.1q0 0 0 0c-0.2-0.1-0.3-0.3-0.4-0.5 0-0.2 0-0.4 0.1-0.6 0.1-0.1 0.3-0.3 0.5-0.3q0.9-0.2 1.7-0.5 0.8-0.2 1.5-0.5c0.4-0.1 0.7-0.3 1-0.4q0.5-0.2 1.1-0.3c0.7-0.1 1.5-0.3 2.2-0.4 0.4-0.1 0.8-0.1 1.2-0.1q0.2 0 0.5 0c0.2 0 0.5 0 0.8 0 0.8 0 1.7 0.1 2.5 0.2 0.1 0 0.2 0 0.3 0 0.4 0.1 0.7 0.1 1.1 0.2 0.4 0 0.8 0.1 1.2 0.2 0.8 0.1 1.5 0.3 2.3 0.5q2.3 0.8 4.6 1.8c0.4 0.2 0.8 0.4 1.2 0.6 0.4 0.3 0.8 0.5 1.3 0.8q0.6 0.4 1.2 0.9c0.3 0.2 0.7 0.5 1 0.7 0.5 0.4 1.1 0.8 1.6 1.2q0.5 0.3 0.9 0.5 0.4 0.2 0.8 0.3 0.5 0.3 1.1 0.4 0.6 0.2 1.2 0.3c0.8 0.2 1.5 0.4 2.2 0.7 0.8 0.3 1.6 0.6 2.3 1 0.7 0.5 1.3 1 1.9 1.6 0.6 0.6 1.1 1.3 1.6 1.9 0.5 0.7 1 1.4 1.4 2.1 0.4 0.7 0.7 1.4 1.1 2.1 0.3 0.8 0.7 1.5 1 2.3 0.2 0.5 0.4 1 0.6 1.5 0.2 0.5 0.3 1 0.5 1.5 0.2 0.4 0.4 0.8 0.7 1.2 0.3 0.4 0.5 0.8 0.8 1.1q0.2 0.3 0.4 0.5c0.1 0.1 0.2 0.2 0.2 0.4h0.1c0.7 0.3 1.3 0.6 2 0.9q1 0.5 2 1c0.7 0.4 1.4 0.9 2 1.4 0.3 0.2 0.6 0.5 0.9 0.8 0.4 0.2 0.6 0.5 0.9 0.8 0.3 0.4 0.8 0.8 1.2 1.3 0.4 0.4 0.8 0.8 1.3 1.2 0.4 0.4 0.8 0.9 1.2 1.3 0.4 0.4 0.8 0.8 1.2 1.1 0.8 0.6 1.7 1.1 2.6 1.6q0.3 0.1 0.6 0.3c0.2 0.1 0.4 0.2 0.6 0.3 0.4 0.2 0.8 0.5 1.3 0.7 0.6 0.2 1.3 0.4 2 0.6 0.7 0.2 1.4 0.5 2.2 0.7 0.7 0.3 1.4 0.6 2.1 0.9 0.8 0.3 1.6 0.6 2.4 1 0.7 0.3 1.4 0.6 2 1 0.7 0.4 1.4 0.8 2 1.2q1 0.7 1.9 1.5c0.3 0.3 0.7 0.6 1 0.8q0.4 0.4 0.9 0.9c0.4 0.3 0.7 0.7 1.1 1 0-0.2-0.1-0.4-0.2-0.6-0.1-0.4-0.1-0.8-0.2-1.2 0-0.4-0.1-0.9-0.2-1.3-0.1-0.8-0.2-1.6-0.2-2.4-0.1-0.5-0.1-0.9-0.1-1.4 0-0.4-0.1-0.8-0.1-1.3q-0.4-2.6-1.4-5.1c-0.1-0.2-0.2-0.5-0.3-0.8-0.2-0.4-0.4-0.7-0.7-1.1-0.2-0.3-0.4-0.6-0.6-0.9q-0.3-0.5-0.6-0.8c-1-1.2-2-2.5-3.1-3.5-0.6-0.6-1.2-1.1-1.7-1.7-0.6-0.6-1.1-1.2-1.7-1.7q-0.5-0.5-0.9-0.9-0.4-0.5-0.8-0.9c-0.5-0.7-0.9-1.3-1.3-2.1-0.4-0.7-0.8-1.4-1.1-2.1-0.1-0.4-0.3-0.7-0.5-1.1-0.1-0.3-0.2-0.5-0.3-0.7-0.2-0.3-0.4-0.5-0.5-0.8-0.3-0.5-0.7-1-1-1.4-0.4-0.5-0.7-0.9-1-1.4-0.6-0.6-1.1-1.3-1.7-1.9q-0.7-0.7-1.4-1.4-0.1 0-0.1-0.1-0.2-0.1-0.3-0.2c-0.1-0.1-0.2-0.1-0.3-0.2-0.2-0.2-0.4-0.4-0.6-0.5-0.2-0.2-0.3-0.3-0.5-0.4-0.2-0.2-0.4-0.3-0.5-0.4-0.2-0.2-0.4-0.3-0.6-0.5-0.2-0.1-0.3-0.3-0.5-0.4-0.2-0.1-0.5-0.3-0.7-0.4-0.2-0.1-0.3-0.2-0.5-0.4-0.4-0.2-0.8-0.3-1.2-0.5-0.4-0.1-0.9-0.3-1.3-0.4q-0.4 0-1-0.1c-0.3-0.1-0.7-0.2-1.1-0.2q-0.5-0.1-1-0.1-0.5 0-1.1 0c-0.8-0.1-1.6-0.3-2.4-0.5-0.4-0.1-0.7-0.3-1.1-0.5-0.4-0.2-0.7-0.3-1.1-0.5-0.8-0.4-1.5-0.9-2.1-1.4-0.3-0.3-0.7-0.5-1-0.8-0.3-0.3-0.6-0.6-1-1-0.5-0.5-1-1.1-1.4-1.7q-0.7-1-1.3-2.1c-0.2-0.3-0.3-0.7-0.5-1.1-0.1-0.3-0.2-0.7-0.4-1.1-0.1-0.4-0.3-0.7-0.5-1.1-0.1-0.4-0.3-0.7-0.5-1-0.4-0.6-0.9-1.1-1.4-1.6q-0.4-0.4-0.7-0.8-0.1-0.2-0.3-0.4-0.2-0.3-0.3-0.6c-0.2-0.4-0.3-0.8-0.5-1.1-0.1-0.4-0.3-0.8-0.4-1.2-0.3-0.7-0.5-1.6-0.6-2.4 0-0.4 0-0.8-0.1-1.3 0-0.5-0.1-1-0.1-1.5-0.2-0.9-0.3-1.9-0.6-2.8 0-0.2-0.1-0.4-0.2-0.7-0.1-0.3-0.3-0.6-0.4-0.9-0.3-0.6-0.6-1.2-0.9-1.9-0.1-0.2-0.1-0.3 0-0.5-0.1-0.2 0-0.3 0-0.4q0.1-0.3 0.4-0.5c0.1 0 0.2 0 0.2 0q0.1 0 0.1 0c0.1 0 0.2 0 0.3 0 0 0 0 0 0.1 0 0.6 0.2 1.3 0.2 2 0.3q1.2 0.2 2.4 0.6c0.8 0.2 1.5 0.4 2.3 0.7 0.4 0.1 0.7 0.2 1.1 0.3 0.3 0.2 0.7 0.3 1.1 0.5q1.1 0.5 2.1 1.2c0.7 0.4 1.3 0.8 1.9 1.3 0.7 0.5 1.3 1 1.9 1.6 0.5 0.5 1.1 1.1 1.7 1.7 0.7 0.7 1.3 1.5 1.9 2.3q0.5 0.7 1 1.3c0.3 0.3 0.6 0.7 1 1 0.5 0.5 1 0.9 1.6 1.3 0.6 0.4 1.2 0.8 1.8 1.2 0.3 0.3 0.7 0.5 1 0.8q0.4 0.5 0.7 1.1c0.2 0.3 0.4 0.6 0.6 1q0.3 0.5 0.5 1 0.4 0.7 0.7 1.6c0.2 0.5 0.4 1 0.5 1.6 0 0 0.1 0.1 0.1 0.1q0.1 0.5 0.3 1.1 0.1 0.5 0.2 1.1c0.1 0.7 0.2 1.5 0.2 2.3 0.1 0.4 0.1 0.8 0.1 1.1q0.1 0.6 0.2 1.2c0.1 0.4 0.1 0.8 0.2 1.1q0 0.5 0.2 1.1c0 0.3 0.1 0.6 0.2 0.9 0.1 0.2 0.2 0.4 0.2 0.6q0.2 0.3 0.3 0.5 0.2 0.4 0.6 0.8c0.1 0.1 0.1 0.3 0.1 0.5 0.5 0.5 1.1 0.9 1.5 1.5q0.8 0.9 1.7 1.9 0.8 1 1.5 2c0.3 0.4 0.6 0.7 0.8 1.1 0.3 0.5 0.6 0.9 0.9 1.4q0.3 0.7 0.6 1.4c0.2 0.5 0.4 1 0.7 1.4 0.2 0.5 0.4 0.9 0.7 1.3q0.4 0.6 0.7 1.1c0.3 0.3 0.5 0.5 0.8 0.8q0.4 0.5 0.8 0.9c0.6 0.6 1.1 1.2 1.7 1.7 0.6 0.6 1.1 1.1 1.7 1.7 0.6 0.5 1.1 1.1 1.6 1.7q0-0.2 0-0.4c0-0.3 0-0.7 0.1-1.1 0-0.8 0.2-1.6 0.4-2.3q0.1-0.5 0.3-1.1 0.1-0.5 0.4-1c0.2-0.6 0.4-1.2 0.6-1.9q0.3-0.8 0.4-1.8c0.1-0.5 0.2-1 0.2-1.4v-0.1c0-0.1-0.1-0.2-0.1-0.3 0-0.1-0.1-0.1-0.1-0.2-0.1-0.1-0.1-0.3-0.2-0.4 0-0.1-0.1-0.2-0.1-0.4q-0.2-0.5-0.6-1-0.1-0.2-0.3-0.5c-0.1-0.2-0.2-0.4-0.3-0.5q-0.4-0.5-0.8-0.9-0.5-0.5-1-1.1c-0.2-0.2-0.4-0.4-0.6-0.6-0.1-0.1-0.3-0.3-0.5-0.5-0.3-0.4-0.6-0.7-0.9-1-0.2-0.1-0.4-0.3-0.6-0.5-0.3-0.2-0.7-0.5-1-0.8q-0.3-0.3-0.7-0.8c-0.3-0.3-0.6-0.6-0.8-0.9-0.3-0.4-0.6-0.8-0.8-1.1-0.2-0.4-0.4-0.7-0.6-1q-0.3-0.6-0.5-1.2c-0.1-0.4-0.2-0.8-0.3-1.1-0.1-0.4-0.2-0.8-0.3-1.1-0.1-0.6-0.3-1.2-0.5-1.7-0.2-0.7-0.5-1.4-0.8-2q-0.4-1.2-0.9-2.3c-0.1-0.4-0.3-0.8-0.5-1.2q-0.1-0.6-0.3-1.2c-0.1-0.7-0.1-1.5 0-2.3 0.1-0.4 0.2-0.8 0.3-1.2 0.1-0.4 0.2-0.8 0.3-1.2q0.4-1 0.8-2.1 0.5-1 0.9-2.1c0.2-0.4 0.3-0.7 0.5-1.1 0.1-0.4 0.3-0.7 0.4-1.1q0.4-1.3 0.7-2.7 0.1-0.5 0.2-1.2c0-0.5 0-0.9-0.1-1.3-0.1-0.6-0.2-1.2-0.3-1.8 0-0.3-0.1-0.6-0.2-0.9 0-0.1 0-0.2-0.1-0.3 0-0.1 0-0.3 0-0.4 0-0.3 0.2-0.6 0.6-0.7q0 0 0.1 0 0.2 0 0.5 0.2c0 0 0 0 0.1 0.1 0.1 0.1 0.2 0.2 0.3 0.3 0.3 0.2 0.6 0.4 0.9 0.7q0.4 0.4 0.8 0.7c0.5 0.5 1.1 1.1 1.6 1.6 0.6 0.5 1.1 1.1 1.6 1.7 0.3 0.4 0.6 0.7 0.8 1.1 0.2 0.4 0.5 0.7 0.7 1 0.2 0.4 0.4 0.7 0.6 1 0.2 0.4 0.3 0.7 0.5 1 0.3 0.7 0.6 1.5 0.9 2.2 0.3 0.8 0.6 1.7 0.9 2.6 0.1 0.3 0.1 0.7 0.2 1.1 0.1 0.4 0.2 0.7 0.3 1.1 0.1 1 0.3 1.9 0.3 2.8 0.1 0.6 0.1 1.1 0.2 1.6 0.1 0.6 0.3 1.1 0.5 1.6q0.2 0.5 0.5 1.1c0.2 0.3 0.5 0.6 0.7 0.9 0.2 0.3 0.4 0.6 0.5 1 0.4 0.7 0.6 1.5 0.7 2.3 0.2 0.8 0.2 1.7 0.2 2.5 0 0.8 0 1.6-0.1 2.5 0 0.7-0.2 1.4-0.4 2q-0.2 1-0.5 2c-0.2 0.7-0.4 1.3-0.6 2-0.2 0.7-0.4 1.3-0.5 1.9q-0.2 1-0.3 2c0 0.3-0.1 0.7-0.1 1.1q0 0.5 0 1c0 0.2-0.1 0.4-0.2 0.5 0 0 0 0.1 0 0.1q-0.1 0.9-0.3 1.7c-0.1 0.4-0.1 0.8-0.3 1.1-0.1 0.4-0.2 0.8-0.3 1.1-0.1 0.4-0.3 0.7-0.4 1.1-0.1 0.3-0.2 0.7-0.4 1-0.2 0.7-0.4 1.4-0.5 2.1q-0.1 0.7-0.2 1.4c0 0.5 0 1 0.1 1.5 0 0.5 0.1 1 0.2 1.4 0.1 0.2 0.1 0.3 0.2 0.4 0 0.1 0 0.1 0 0.1 0.4 0.5 0.7 1 1 1.4 0.2 0.4 0.4 0.8 0.6 1.1 0.2 0.4 0.3 0.7 0.5 1.1 0.3 0.7 0.6 1.5 0.8 2.4q0.3 0.9 0.5 1.9c0.1 0.8 0.2 1.5 0.3 2.2q0.1 1.1 0.1 2.1c0.1 0.7 0.2 1.3 0.2 2 0.1 0.8 0.3 1.6 0.4 2.3 0.2 0.7 0.5 1.4 0.7 2.1q0.2 0.3 0.3 0.6c0.1 0.1 0.1 0.2 0.2 0.3 0.1 0.1 0.2 0.2 0.2 0.3 0.2 0.1 0.2 0.2 0.3 0.3q0.1 0.1 0.1 0.2 0.1 0.1 0.1 0.4c0.2 0.2 0.5 0.5 0.7 0.8q0.7 0.9 1.5 1.8 0.7 0.9 1.5 2 0.6 1 1.3 2.1c0.2 0.3 0.3 0.7 0.5 1 0.2 0.4 0.4 0.7 0.6 1 0.4 0.7 0.8 1.4 1.1 2.2 0.8 1.4 1.5 2.8 2.3 4.3 0.3 0.7 0.7 1.4 1.1 2.1q0.6 1.2 1.2 2.3c0.2 0.3 0.4 0.6 0.5 0.9 0.1 0 0.1 0 0.1 0 0.1 0.2 0.2 0.3 0.2 0.5 0.1 0.1 0.2 0.2 0.2 0.3 0.2 0.3 0.4 0.5 0.6 0.8 0.1 0.3 0.3 0.5 0.5 0.7 0.5 0.7 1 1.3 1.6 1.9q0.8 0.8 1.8 1.5c0.6 0.5 1.2 0.9 1.8 1.4 0.7 0.4 1.4 0.9 2 1.4 0.7 0.5 1.3 0.9 2 1.4q1.1 0.8 2 1.7c0.6 0.5 1.2 1.1 1.8 1.6 0.6 0.5 1.2 1 1.8 1.6 0.6 0.5 1.1 1.1 1.6 1.7 0.6 0.7 1.2 1.4 1.7 2.1 0.2 0.3 0.4 0.5 0.6 0.8q0.3 0.5 0.6 0.9c0.4 0.6 0.8 1.2 1.1 1.8 0.2 0.3 0.4 0.6 0.5 1 0.2 0.3 0.3 0.6 0.5 0.9q0.2 0.6 0.4 1.1c0.2 0.3 0.3 0.7 0.4 1.1 0.1 0.4-0.2 0.8-0.6 0.9-0.4 0.1-0.8-0.1-0.9-0.5-0.2-0.5-0.3-1-0.5-1.4q-0.4-0.8-0.7-1.5c-0.3-0.6-0.6-1.1-1-1.6-0.3-0.6-0.7-1.1-1.1-1.6-0.2-0.3-0.3-0.6-0.6-0.8-0.1-0.3-0.3-0.5-0.5-0.7-0.2-0.3-0.4-0.6-0.7-0.9-0.3-0.3-0.5-0.6-0.8-1-0.6-0.6-1.1-1.1-1.7-1.7-0.6-0.5-1.2-1-1.8-1.6-0.6-0.5-1.2-1.1-1.8-1.6-0.2-0.2-0.4-0.4-0.7-0.5q-0.9-0.7-1.9-1.4c-0.6-0.4-1.2-0.9-1.9-1.4-0.6-0.4-1.3-0.9-2-1.4-0.3-0.2-0.7-0.5-1-0.8-0.3-0.2-0.7-0.5-1-0.8q-0.9-0.8-1.6-1.7-0.9-1-1.6-2.1c-0.2-0.3-0.4-0.7-0.6-1-0.3-0.2-0.6-0.4-0.8-0.7-0.4-0.3-0.7-0.6-1-0.9-0.3-0.3-0.7-0.7-1-1-0.3-0.3-0.6-0.6-0.9-0.9-0.3-0.2-0.6-0.4-0.9-0.5q-0.5-0.3-1-0.6c-0.6-0.4-1.2-0.6-1.8-0.9-0.3-0.1-0.6-0.2-0.9-0.3-0.3-0.1-0.6-0.2-1-0.3-0.3-0.1-0.7-0.1-1-0.2-0.3 0-0.7-0.1-1-0.1q-1.1-0.1-2.3-0.2c-0.7 0-1.5 0-2.3 0q-0.6 0-1.2 0c-0.4 0-0.8 0.1-1.2 0.1-0.8 0-1.6 0-2.3 0-0.8 0-1.6-0.1-2.4-0.2-0.2 0-0.4 0-0.6-0.1q-0.3 0.9-0.7 1.6c-0.4 0.7-0.8 1.3-1.3 1.9q-0.9 1-1.9 1.7c-0.2 0-0.4 0.2-0.5 0.3-0.2 0.1-0.4 0.2-0.5 0.2q-0.6 0.3-1.2 0.5c-0.7 0.2-1.5 0.2-2.2 0.3-0.4 0.1-0.8 0.2-1.2 0.2-0.2 0-0.4 0-0.5 0q-0.3 0-0.5 0-0.7 0-1.3 0.3-0.2 0-0.4 0.1c-0.2 0.1-0.3 0.2-0.5 0.3-0.1 0-0.1 0-0.1 0-0.1 0.1-0.2 0.2-0.3 0.3-0.1 0-0.1 0.1-0.1 0.1-0.2 0.3-0.3 0.6-0.4 0.9q-0.3 0.5-0.6 1.1c-0.4 0.6-0.8 1.3-1.2 2q-0.3 0.4-0.6 0.9c-0.3 0.3-0.6 0.6-0.9 1-0.2 0.2-0.4 0.5-0.8 0.7q-0.5 0.3-1.1 0.7-0.3 0.2-0.7 0.5c-0.2 0.1-0.4 0.3-0.7 0.4-0.5 0.2-0.9 0.4-1.4 0.6q-0.8 0.3-1.7 0.5c-0.5 0.1-1 0.3-1.4 0.4-0.3 0.1-0.6 0.2-0.8 0.4-0.3 0.1-0.6 0.3-0.8 0.4-0.6 0.5-1.2 1-1.7 1.5-0.6 0.5-1.1 1.1-1.7 1.7-0.2 0.2-0.4 0.5-0.7 0.8-0.2 0.3-0.4 0.6-0.7 0.9-0.5 0.6-1 1.2-1.5 1.8-0.3 0.3-0.6 0.6-0.8 0.8-0.3 0.3-0.7 0.6-1 0.8-0.7 0.5-1.5 0.7-2.3 0.9-0.3 0.1-0.7 0.2-1.1 0.3-0.4 0-0.8 0.1-1.2 0.1-0.9 0.1-1.7 0.2-2.5 0.2-0.9 0-1.7 0-2.5-0.1-0.4 0-0.8-0.1-1.2-0.1-0.4-0.1-0.8-0.2-1.3-0.3q-0.6-0.2-1.2-0.4-0.6-0.3-1.2-0.4c-0.1 0-0.2-0.1-0.3-0.2-0.1 0-0.3 0-0.4 0-0.2 0-0.5-0.1-0.7-0.1-0.2-0.1-0.4-0.1-0.7-0.2-0.1 0-0.2 0-0.4-0.1-0.2 0-0.4 0-0.5-0.1-0.2-0.1-0.4-0.2-0.6-0.2-0.3-0.2-0.6-0.3-0.9-0.5-0.1-0.1-0.2-0.1-0.3-0.1q-0.1-0.1-0.2-0.2c-0.1-0.1-0.2-0.4-0.2-0.6 0 0 0.1-0.1 0.1-0.2q0.1-0.2 0.2-0.3 0.1-0.1 0.2-0.1c0.1-0.1 0.2-0.1 0.3-0.1 0.1-0.1 0.3-0.2 0.4-0.2 0.1-0.1 0.2-0.2 0.3-0.2 0.1-0.1 0.2-0.3 0.3-0.4q0.3-0.4 0.6-0.7c0.3-0.3 0.5-0.7 0.7-1q0.5-1 1-2c0.2-0.3 0.5-0.6 0.7-0.9 0.3-0.4 0.6-0.7 0.9-1q0.8-0.9 2-1.5 0.4-0.3 1-0.5 0.6-0.2 1.3-0.4c0.7-0.2 1.4-0.5 2.1-0.7 0.4-0.1 0.7-0.2 1-0.4q0.5-0.2 1.1-0.6c0.4-0.3 0.8-0.6 1.2-0.9 0.5-0.4 0.9-0.9 1.3-1.3 0.5-0.6 1-1.2 1.5-1.7 0.5-0.6 1.1-1.2 1.7-1.7 0.6-0.6 1.3-1.1 2-1.6 0.1-0.1 0.3-0.1 0.4-0.2q0.3-0.2 0.6-0.3 0.6-0.3 1.1-0.4c0.8-0.3 1.6-0.6 2.5-0.8 0.7-0.1 1.5-0.2 2.2-0.2 0.3 0 0.5-0.1 0.7-0.1 0.2 0 0.4 0 0.5 0 0.4 0.1 0.8 0.1 1.2 0.1 0.4 0.1 0.8 0.2 1.2 0.2 0.3 0.1 0.7 0.2 1.1 0.2 0.8 0.1 1.7 0.3 2.5 0.6 0.8 0.3 1.5 0.5 2.2 0.7 0.5 0.1 1 0.1 1.5 0.1 0 0 0.1 0 0.2 0 0.1 0 0.2 0 0.3 0 0.1-0.1 0.2-0.1 0.3-0.1q0.3-0.2 0.6-0.1-0.1 0 0 0 0.3-0.1 0.7-0.3c0.3-0.1 0.6-0.2 1-0.3 0.3-0.1 0.7-0.1 1.1-0.1q0.2 0 0.5 0 0.2 0 0.4 0c0.5-0.1 1-0.2 1.5-0.2q0.9-0.1 1.6-0.3c0.3-0.2 0.6-0.2 0.8-0.4q0.5-0.2 0.9-0.5c0.3-0.1 0.5-0.3 0.7-0.5q0.3-0.3 0.6-0.6c0.2-0.4 0.5-0.7 0.7-1.1q0.4-0.5 0.6-1c0.2-0.4 0.3-0.7 0.5-1-0.1-0.1-0.3-0.1-0.4-0.1q-0.6-0.2-1.2-0.5c-0.4-0.1-0.8-0.3-1.1-0.5-0.8-0.3-1.5-0.7-2.2-1.1-0.4-0.3-0.9-0.5-1.4-0.8q-0.7-0.3-1.4-0.8c-0.9-0.6-1.8-1-2.7-1.4-0.6-0.3-1.2-0.5-1.9-0.7-0.6-0.2-1.3-0.4-2-0.6-0.7-0.2-1.4-0.4-2-0.5-0.7-0.2-1.4-0.3-2.1-0.4q-0.7 0-1.5-0.1c-0.5-0.1-1-0.1-1.6-0.1q-0.8 0-1.6 0-0.7 0-1.4 0.1c-0.5 0.1-1 0.2-1.5 0.2-0.1 0-0.1 0-0.2 0q-0.1 0-0.2 0c-0.2 0.1-0.4 0.1-0.6 0.2q-0.5 0.2-0.8 0.4c-0.4 0.2-0.7 0.5-1 0.7-0.3 0.2-0.5 0.5-0.8 0.7-0.3 0.3-0.6 0.6-0.9 0.9-0.2 0.2-0.5 0.5-0.8 0.8-0.3 0.2-0.6 0.5-0.9 0.8-0.3 0.3-0.6 0.5-0.9 0.8q-0.4 0.4-0.9 0.8c-0.6 0.5-1.3 0.9-2 1.3q-0.6 0.3-1.1 0.5c-0.4 0.2-0.8 0.4-1.2 0.6-0.3 0.1-0.7 0.2-1.1 0.3q-0.7 0.2-1.4 0.2c-0.4 0.1-0.8 0.1-1.2 0.1-0.4 0-0.8 0.1-1.3 0.1-0.8 0-1.7-0.1-2.5-0.3-0.6-0.1-1.3-0.3-1.9-0.4q-0.8-0.2-1.7-0.4c-0.8-0.1-1.6-0.2-2.4-0.1-0.4 0.1-0.8 0.2-1.2 0.3q-0.8 0.2-1.7 0.2c-0.6 0.1-1.2 0.2-1.8 0.3-0.1 0-0.1 0-0.1 0-0.1 0-0.3 0-0.4 0-0.7 0.1-1.4 0.2-2.1 0.4-0.4 0-0.8 0.1-1.2 0.2q-0.7 0.1-1.3 0.1c-0.8 0.1-1.6 0.2-2.4 0.1-0.6 0-1.2-0.1-1.8-0.2q-0.6-0.1-1.1-0.3c-0.3-0.1-0.7-0.2-1.1-0.4-0.4-0.1-0.9-0.3-1.3-0.5-0.3-0.2-0.7-0.4-1.1-0.6q-0.5-0.3-1-0.5c-0.4-0.2-0.7-0.4-1-0.6-0.4-0.3-0.8-0.6-1.2-0.9q-0.5-0.3-0.9-0.7c-0.3-0.3-0.6-0.6-0.9-0.8-0.3-0.4-0.6-0.7-1-1q-0.2-0.2-0.4-0.5c-0.1-0.1-0.3-0.2-0.4-0.2-0.1-0.1-0.2-0.2-0.4-0.3-0.1-0.1-0.3-0.1-0.6-0.2-0.3 0-0.5-0.2-0.8-0.3q0 0-0.1-0.1c0 0-0.1 0-0.1 0-0.1-0.1-0.3-0.3-0.3-0.5-0.5 0-0.5-0.2-0.4-0.4zm50.8-37.3q-0.3-0.8-0.6-1.6c-0.2-0.6-0.4-1.1-0.7-1.6-0.2-0.6-0.5-1.1-0.8-1.6q-0.4-0.8-0.9-1.7c-0.2-0.3-0.4-0.5-0.6-0.8q-0.2-0.3-0.4-0.6c-0.7-0.8-1.4-1.6-2.2-2.3q-0.4-0.3-0.7-0.5c-0.3-0.2-0.6-0.3-0.9-0.4-0.7-0.3-1.3-0.5-2-0.8-0.8-0.2-1.6-0.4-2.3-0.6-0.4-0.1-0.8-0.2-1.2-0.4-0.2-0.1-0.4-0.2-0.7-0.3-0.1-0.1-0.3-0.1-0.5-0.2-0.7-0.4-1.3-0.8-2-1.3-0.6-0.4-1.2-0.9-1.9-1.4-0.3-0.2-0.5-0.4-0.9-0.6-0.4-0.3-0.8-0.5-1.2-0.7-0.7-0.4-1.4-0.7-2.1-1-1.2-0.4-2.3-0.9-3.5-1.3-0.6-0.2-1.2-0.3-1.9-0.4-0.6-0.2-1.1-0.3-1.7-0.3q-0.5-0.1-1.1-0.2c-0.7-0.1-1.4-0.1-2.2-0.1-0.7 0-1.4 0-2.2 0-0.6 0.1-1.1 0.3-1.7 0.4-0.6 0.2-1.2 0.3-1.8 0.6-0.3 0.1-0.6 0.2-0.8 0.3h-0.1q0.1 0 0.2 0.1c0.4 0.1 0.7 0.2 1.1 0.3q0.5 0.2 1.1 0.4 1.1 0.5 2.2 1c0.4 0.2 0.7 0.4 1 0.6 0.4 0.2 0.7 0.4 1 0.6 0.7 0.5 1.4 1.1 2 1.6 0.6 0.5 1.2 1 1.8 1.5 0.1 0.2 0.3 0.3 0.5 0.4 0.3 0.2 0.5 0.5 0.8 0.7 0.3 0.2 0.6 0.3 0.9 0.5 0.6 0.4 1.2 0.8 1.8 1.1q1 0.6 2 1c0.3 0.2 0.6 0.4 1 0.5q0.4 0.2 0.7 0.3l0.2 0.1c0.3 0.1 0.6 0.3 1 0.4q0.5 0.2 1.1 0.4c0.4 0.2 0.8 0.3 1.1 0.4 0.4 0.1 0.8 0.3 1.2 0.4 0.7 0.2 1.5 0.4 2.2 0.6 0.8 0.2 1.5 0.5 2.3 0.7 0.7 0.2 1.4 0.4 2.2 0.6 0.7 0.2 1.4 0.4 2.2 0.6 0.3 0.1 0.7 0.1 1.1 0.3 0.3 0.1 0.6 0.2 1 0.3q1 0.5 2.1 1.1c0.6 0.3 1.2 0.8 1.8 1.3 0.3 0.3 0.5 0.6 0.8 0.8 0.3 0.3 0.6 0.6 0.8 0.8 0.2 0.2 0.4 0.4 0.5 0.6 0-0.2 0-0.4-0.1-0.6zm0.5 3c-0.2-0.2-0.5-0.5-0.7-0.7-0.3-0.2-0.5-0.4-0.7-0.7-0.2-0.2-0.5-0.4-0.7-0.7-0.2-0.2-0.4-0.4-0.6-0.6-0.5-0.5-0.9-0.9-1.4-1.3q-0.3-0.2-0.6-0.4-0.4-0.2-0.7-0.4c-0.5-0.3-1-0.5-1.5-0.8q-0.5-0.1-0.9-0.3c-0.3-0.1-0.7-0.2-1.1-0.3-0.7-0.2-1.4-0.3-2.2-0.5-0.7-0.2-1.4-0.5-2.2-0.7-0.7-0.2-1.5-0.4-2.2-0.6-0.8-0.2-1.5-0.5-2.3-0.7-0.4-0.1-0.8-0.2-1.1-0.3-0.4-0.1-0.8-0.3-1.2-0.4-0.4-0.2-0.7-0.3-1.1-0.5-0.4-0.1-0.8-0.3-1.2-0.5-0.4-0.1-0.8-0.3-1.2-0.5q-0.5-0.3-1.1-0.6-0.7-0.3-1.4-0.7c-0.5-0.3-1.1-0.6-1.6-0.9q-0.6-0.5-1.3-0.9-0.7-0.5-1.4-1-0.7-0.6-1.5-1.3c-0.5-0.4-1-0.8-1.5-1.3-0.7-0.5-1.4-1-2.2-1.4-0.4-0.2-0.7-0.4-1.1-0.6q-0.6-0.3-1.2-0.5c-0.3-0.2-0.7-0.3-1-0.4-0.4-0.2-0.8-0.3-1.2-0.4-0.2-0.1-0.5-0.2-0.8-0.2 0.2 0.3 0.3 0.5 0.4 0.8 0.3 0.6 0.4 1.2 0.6 1.7q0.1 0.5 0.3 1 0.1 0.4 0.3 0.7c0.2 0.5 0.4 1 0.6 1.4 0.3 0.5 0.5 1 0.7 1.5 0.6 0.9 1.1 1.9 1.8 2.7 0.1 0.2 0.2 0.4 0.4 0.5 0.1 0.1 0.3 0.3 0.4 0.4 0.1 0 0.1 0.1 0.2 0.2 0.7 0.4 1.4 0.8 2.1 1.1 0.7 0.4 1.5 0.7 2.2 1.1 0.3 0.1 0.7 0.3 1 0.5 0.4 0.2 0.8 0.4 1.1 0.6 0.4 0.3 0.8 0.6 1.1 0.9 0.3 0.2 0.5 0.5 0.8 0.8 0.6 0.7 1.1 1.4 1.7 2 0.6 0.6 1.2 1.1 1.9 1.6 1 0.7 2.1 1.3 3.2 1.8 0.6 0.2 1.2 0.4 1.8 0.6q0.4 0.2 0.9 0.2 0.4 0.1 0.9 0.2 1.1 0.1 2.4 0.1 1.2 0 2.4-0.1c0.8-0.1 1.5-0.3 2.2-0.4 0.8-0.1 1.6-0.2 2.4-0.4 0.3 0 0.7-0.1 1.1-0.2q0.6-0.1 1.3-0.2c0.8 0 1.6-0.1 2.3 0 1 0 1.9 0.2 2.8 0.4q-0.2-0.2-0.4-0.4zm-11.1-47.8c0.1 0.3 0.2 0.6 0.3 1 0.2 0.4 0.3 0.8 0.4 1.2 0.1 0.4 0.1 0.8 0.2 1.1q0.1 0.6 0.2 1.2 0 0.5 0.1 1.1c0.1 0.4 0.1 0.8 0.1 1.1q0.1 1 0.3 1.8c0.2 0.6 0.4 1.1 0.6 1.6q0.2 0.5 0.4 0.9c0.1 0.3 0.2 0.5 0.3 0.7q0.3 0.4 0.6 0.8 0.3 0.4 0.7 0.8c0.3 0.2 0.6 0.5 0.8 0.8 0.2 0.3 0.5 0.7 0.6 1.1q0.5 1 0.9 2.2 0.4 1 0.9 2.1c0.2 0.2 0.3 0.5 0.5 0.8q0.4 0.7 1 1.4c0.4 0.5 0.8 0.9 1.3 1.4 0.2 0.2 0.5 0.4 0.8 0.7q0.4 0.3 0.9 0.6c0.5 0.4 1.1 0.8 1.7 1.1 0.4 0.2 0.9 0.4 1.3 0.6 0.4 0.2 0.9 0.3 1.3 0.5 0.4 0 0.8 0.1 1.2 0.1q0.5 0.1 1 0.1c0.4 0 0.7 0 1 0 0.4 0.1 0.8 0.1 1.2 0.2q0.5 0.1 1 0.2c0.4 0.1 0.9 0.2 1.3 0.4q1.1 0.3 2.1 0.9c0.3 0.1 0.5 0.3 0.8 0.5-0.1-0.2-0.2-0.4-0.4-0.7-0.2-0.4-0.4-0.8-0.6-1.3q-0.3-0.6-0.7-1.2c0-0.1-0.1-0.2-0.2-0.3-0.4-0.7-0.9-1.4-1.5-2.1q-0.7-1-1.6-1.9-0.3-0.3-0.7-0.6c-0.3-0.2-0.6-0.4-0.9-0.6q-0.8-0.6-1.7-1.1c-0.3-0.2-0.7-0.3-1-0.5-0.3-0.2-0.6-0.4-0.9-0.6q-0.5-0.3-0.9-0.6c-0.3-0.2-0.6-0.4-0.9-0.7-0.6-0.5-1.2-1.1-1.8-1.7-0.5-0.5-0.9-1.1-1.3-1.7q-0.6-0.8-1.1-1.6-0.7-1-1.2-2.1c-0.4-0.6-0.7-1.3-1.1-2q-0.3-0.5-0.5-1-0.2-0.5-0.5-1-0.2-0.3-0.5-0.7c-0.2-0.3-0.5-0.6-0.7-0.9-0.4-0.5-0.9-0.9-1.3-1.3-0.3-0.3-0.7-0.6-1-0.9-0.3-0.2-0.6-0.5-1-0.7q-0.5-0.4-1-0.7c-0.4-0.3-0.6-0.4-0.8-0.5zm25.9 25.4c-0.1-0.3-0.1-0.7-0.2-1.1 0-0.4 0-0.8-0.1-1.1 0-0.6-0.1-1.2-0.2-1.7-0.1-0.6-0.3-1.1-0.4-1.6-0.1-0.1-0.1-0.2-0.1-0.3-0.3-0.8-0.7-1.7-1-2.5-0.2-0.4-0.4-0.8-0.6-1.2-0.2-0.4-0.4-0.8-0.6-1.1-0.3-0.4-0.5-0.7-0.8-1-0.6-0.5-1.1-0.8-1.7-1.2q-1-0.6-1.9-1.4-0.8-0.7-1.7-1.6c-0.5-0.6-1-1.3-1.5-1.9-0.2-0.3-0.4-0.6-0.7-0.9q-0.3-0.5-0.8-0.9c-0.5-0.6-1.1-1.2-1.7-1.8-0.3-0.2-0.6-0.5-0.9-0.8-0.4-0.3-0.8-0.6-1.2-0.8-0.8-0.6-1.6-1.1-2.4-1.6q-0.6-0.3-1.3-0.6c-0.4-0.2-0.9-0.3-1.4-0.5q-0.8-0.2-1.6-0.4-0.7-0.2-1.5-0.5-0.4 0-0.7-0.1 0.1 0.1 0.3 0.2 0.9 0.6 1.9 1.3c0.7 0.5 1.3 1.1 1.9 1.6q0.8 0.8 1.5 1.7c0.1 0.2 0.3 0.4 0.5 0.6q0.3 0.5 0.6 0.9c0.3 0.5 0.5 1.1 0.8 1.6 0.1 0.3 0.2 0.6 0.4 0.8 0.1 0.3 0.2 0.5 0.4 0.8 0.3 0.6 0.5 1.1 0.9 1.6 0.5 0.8 1 1.5 1.5 2.3 0.3 0.4 0.6 0.8 0.9 1.2 0.3 0.4 0.7 0.7 1 1.1 0.3 0.3 0.6 0.5 1 0.8 0.3 0.2 0.6 0.5 1 0.8 0.3 0.2 0.7 0.4 1.1 0.7 0.3 0.2 0.7 0.4 1 0.6q1 0.5 2 1.1 0.9 0.6 1.7 1.4c0.6 0.5 1.1 1 1.7 1.6q0.7 0.9 1.3 1.8c0.3 0.4 0.5 0.8 0.8 1.2 0.2 0.3 0.4 0.7 0.6 1.1 0.2 0 0.2-0.1 0.2-0.2zm13.8-23.1c-0.2-0.4-0.4-0.9-0.5-1.3q-0.1-0.2-0.2-0.4c0 0.3 0 0.6 0 0.9 0 0.4-0.1 0.7-0.1 1.1-0.2 0.8-0.4 1.6-0.6 2.4-0.1 0.2-0.1 0.4-0.2 0.5 0 0.2-0.1 0.4-0.2 0.6q-0.2 0.5-0.4 1.1-0.5 1.1-0.9 2.1-0.3 0.5-0.5 1.1c-0.1 0.3-0.2 0.7-0.4 1-0.1 0.4-0.2 0.8-0.4 1.2-0.1 0.3-0.2 0.7-0.3 1.1q0-0.1 0 0-0.1 0.9-0.1 1.8c0.1 0.5 0.2 1 0.4 1.5 0.1 0.3 0.2 0.6 0.4 1 0.1 0.3 0.3 0.7 0.4 1.1 0.2 0.3 0.3 0.7 0.5 1.1q0.2 0.5 0.4 1c0.2 0.4 0.4 0.9 0.5 1.3 0.1 0.3 0.3 0.7 0.4 1.1 0.2 0.7 0.4 1.5 0.6 2.3 0 0.2 0.1 0.5 0.2 0.8 0.1 0.3 0.3 0.6 0.4 0.8 0.2 0.3 0.3 0.6 0.5 0.8 0.2 0.3 0.4 0.5 0.6 0.8 0.2 0.3 0.4 0.5 0.7 0.8 0.2 0.3 0.4 0.5 0.6 0.7 0.2 0.2 0.5 0.4 0.7 0.6 0.1 0.1 0.2 0.2 0.4 0.4 0.2 0.2 0.4 0.4 0.7 0.6 0.2 0.2 0.4 0.4 0.6 0.6 0.2 0.2 0.4 0.5 0.6 0.7q0.4 0.4 0.7 0.7c0.3 0.3 0.5 0.5 0.7 0.8q0.3 0.3 0.6 0.6 0.4 0.4 0.6 0.8c0 0.1 0.1 0.1 0.1 0.1-0.1-0.2-0.1-0.5-0.1-0.8q-0.1-0.7-0.2-1.5c-0.1-0.8-0.2-1.7-0.5-2.5-0.2-0.7-0.6-1.4-0.9-2q-0.3-0.5-0.6-1-0.3-0.4-0.6-1c-0.4-0.7-0.9-1.4-1.2-2.2-0.2-0.3-0.4-0.6-0.5-1-0.2-0.3-0.3-0.7-0.5-1.1-0.3-0.7-0.6-1.4-0.8-2.1q-0.2-0.6-0.5-1.2 0-0.3-0.1-0.6-0.1-0.3-0.2-0.6c-0.1-0.4-0.1-0.8-0.1-1.3-0.1-0.4-0.1-0.7-0.1-1.1q0-1.2 0.1-2.3 0.1-1 0.1-2 0.1-0.6 0.2-1.2c0-0.3 0.1-0.6 0.2-0.9 0-0.4 0.1-0.8 0.1-1.3q0-0.6 0-1.2-0.1-1.1-0.3-2.1c-0.1-0.6-0.3-1.3-0.5-1.9-0.2-0.5-0.3-0.9-0.5-1.3zm9.4 29.9c0.1-0.4 0.2-0.8 0.3-1.1q0.3-1.1 0.5-2.1c0.3-1.5 0.3-3 0.2-4.5-0.1-0.4-0.1-0.8-0.2-1.2q0-0.5-0.3-1-0.1-0.4-0.4-0.9c-0.1-0.2-0.2-0.4-0.4-0.6-0.3-0.5-0.6-0.9-0.9-1.4-0.1-0.2-0.2-0.5-0.3-0.8q-0.2-0.4-0.3-0.7-0.3-1.5-0.4-3c-0.1-1-0.2-2-0.5-2.9q-0.3-1.6-0.7-3c-0.2-0.5-0.4-1-0.6-1.5-0.3-0.6-0.5-1.2-0.8-1.8-0.2-0.5-0.5-1.1-0.8-1.6-0.3-0.5-0.6-0.9-0.9-1.4-0.3-0.5-0.7-0.9-1-1.3q-0.5-0.5-1-1.1c0.2 0.6 0.5 1.2 0.7 1.8 0.3 0.7 0.5 1.4 0.7 2.2 0.1 0.4 0.2 0.8 0.2 1.1 0.1 0.4 0.1 0.8 0.2 1.1q0.1 1.3 0.1 2.5c0 0.4-0.1 0.9-0.2 1.3 0 0.4-0.1 0.7-0.2 1-0.1 0.5-0.1 1-0.1 1.5-0.1 0.6-0.1 1.1-0.1 1.6-0.1 0.6-0.1 1.1-0.1 1.6 0 0.6 0 1.1 0.1 1.6q0 0.6 0.2 1.2 0.1 0.6 0.3 1.2c0.3 0.7 0.5 1.3 0.8 2 0.2 0.4 0.3 0.8 0.5 1.2q0.2 0.5 0.4 1c0.4 0.8 0.8 1.5 1.2 2.2q0.6 1 1.2 2c0.6 0.9 1.1 2 1.5 3 0.3 1 0.4 1.9 0.5 2.9 0.1-0.3 0.2-0.7 0.3-1.1 0.1-0.3 0.2-0.6 0.3-1zm-6.6 56c0.4 0 0.9 0 1.3 0 0.8 0 1.5 0 2.3 0 0.4 0 0.8-0.1 1.2-0.1 0.3 0 0.7 0 1.1 0 0.4 0 0.7 0 1.1 0 0.4 0 0.8-0.1 1.2-0.1 0.8 0 1.5 0.1 2.3 0.2 0.5 0.1 1 0.2 1.5 0.2 0.4 0.1 0.7 0.1 1.1 0.2 0.4 0.1 0.8 0.2 1.2 0.3q0.6 0.3 1.2 0.5 1.1 0.5 2.1 1.1 0.8 0.5 1.6 1.1 0.2 0.2 0.3 0.2c-0.2-0.3-0.3-0.7-0.5-1-0.4-0.7-0.8-1.4-1.1-2.1-0.4-0.7-0.8-1.5-1.2-2.2q-0.6-1-1.2-2.1c-0.2-0.5-0.5-1-0.7-1.4-0.3-0.5-0.5-1-0.8-1.4q-0.2-0.2-0.2-0.5-0.1 0-0.2-0.1-0.5-0.4-1.1-0.9c-0.2-0.1-0.5-0.3-0.7-0.4-0.2-0.1-0.4-0.2-0.6-0.3-0.2-0.1-0.3-0.2-0.6-0.3-0.2 0-0.3-0.1-0.5-0.1-0.6-0.1-1.3-0.2-1.9-0.2q-0.6 0.1-1.2 0.2c-0.4 0-0.8 0.1-1.2 0.2-0.4 0.2-0.7 0.3-1.1 0.6q-1 0.7-1.9 1.7-0.3 0.4-0.6 0.7-0.3 0.4-0.6 0.9c-0.4 0.5-0.7 1.1-1 1.7q-0.4 1-0.8 1.9-0.3 0.7-0.6 1.4c0.2 0 0.5 0 0.8 0.1zm-18.5 8.7q-0.9-0.3-1.7-0.6-0.8-0.2-1.5-0.4c-0.4-0.1-0.9-0.1-1.3-0.2-0.4 0-0.8-0.1-1.3-0.2-0.8-0.1-1.7-0.2-2.6-0.2q-1 0.1-2.1 0.3c-0.4 0-0.8 0.1-1.1 0.2q-0.5 0.1-1.1 0.4c-0.8 0.3-1.5 0.6-2.3 1-0.5 0.4-1 0.8-1.5 1.2-0.5 0.5-1 0.9-1.5 1.4-1 1.2-2 2.5-3.3 3.6-0.3 0.2-0.6 0.4-0.9 0.7-0.2 0.1-0.4 0.2-0.6 0.4q-0.3 0.1-0.6 0.3-0.6 0.2-1.1 0.4c-0.4 0.2-0.9 0.3-1.3 0.4q-1 0.3-2 0.6c-0.2 0.1-0.5 0.2-0.7 0.3-0.3 0.2-0.5 0.3-0.8 0.5-0.3 0.2-0.6 0.5-1 0.8-0.3 0.2-0.6 0.5-0.8 0.8q-0.6 0.8-1.1 1.6-0.5 0.9-1 1.8c-0.1 0.3-0.4 0.6-0.6 0.9-0.1 0.2-0.3 0.3-0.4 0.5 0.2 0 0.4 0 0.6-0.1 0.7-0.1 1.5-0.1 2.1-0.2 0.4 0 0.8-0.1 1.1-0.1 0.4-0.1 0.7-0.1 1.1-0.1 0.4-0.1 0.8-0.1 1.2-0.1 0.4-0.1 0.7-0.2 1.1-0.2 0.4-0.1 0.7-0.2 1.1-0.4 0.3-0.1 0.6-0.2 0.9-0.3 0.3-0.1 0.6-0.3 0.9-0.5 0.1 0 0.2-0.1 0.3-0.1q0.2-0.2 0.4-0.3 0 0 0 0c0.1 0 0.1-0.1 0.2-0.1q0 0 0 0 0.2-0.1 0.4-0.2 0.9-0.6 1.6-1.4 0.3-0.4 0.7-0.8c0.3-0.3 0.6-0.6 0.8-0.9 0.5-0.6 1.1-1.1 1.6-1.7 0.5-0.5 1.1-1.1 1.7-1.5 0.3-0.3 0.7-0.6 1.1-0.8 0.4-0.2 0.7-0.5 1.1-0.7 0.6-0.3 1.2-0.7 1.9-1q1-0.5 2.1-0.9c0.3-0.1 0.7-0.2 1-0.2q0.5-0.2 1-0.3c0.7-0.1 1.4-0.2 2.1-0.2 0.6-0.1 1.2-0.1 1.7-0.3q0.9-0.2 1.7-0.4c0.3-0.1 0.6-0.2 0.8-0.4q0.4-0.2 0.8-0.4c0.7-0.5 1.4-1 2-1.6-0.3-0.2-0.6-0.2-0.9-0.3zm-23.4 14.1c0 0 0 0 0 0q0 0 0 0zm0.1 0q0-0.1 0-0.1 0 0 0 0.1zm0-0.1q0.1 0 0.1 0 0 0-0.1 0zm24.3-11.9c-0.6 0.5-1.3 1-2 1.4-0.8 0.4-1.6 0.6-2.4 0.8-0.3 0.1-0.7 0.2-1.1 0.3-0.4 0.1-0.8 0.1-1.1 0.1-0.2 0-0.4 0.1-0.6 0.1-0.6 0-1.2 0.1-1.9 0.2-0.6 0.2-1.2 0.3-1.8 0.5-0.4 0.2-0.8 0.3-1.2 0.5-0.4 0.2-0.8 0.4-1.2 0.6-0.8 0.4-1.6 0.9-2.3 1.3-0.5 0.3-0.9 0.6-1.3 1-0.4 0.3-0.8 0.7-1.1 1.1-0.7 0.7-1.4 1.4-2.1 2.2-0.4 0.5-0.8 1-1.3 1.5-0.3 0.3-0.5 0.5-0.8 0.7q-0.5 0.4-0.9 0.7c-0.2 0.1-0.4 0.2-0.5 0.3q-0.1 0.1-0.2 0.1c-0.1 0.1-0.2 0.2-0.3 0.3v-0.1c-0.3 0.2-0.6 0.4-1 0.6-0.3 0.2-0.7 0.3-1.1 0.5q-1.1 0.4-2.2 0.6c-0.8 0.1-1.6 0.1-2.3 0.2q-0.6 0.1-1.1 0.2c-0.3 0-0.7 0-1 0.1h-0.1c0.1 0 0.4 0 0.5 0 0.3 0.1 0.5 0.1 0.7 0.2q0.3 0.1 0.5 0.4 0 0 0 0 0.1 0.1 0.3 0.1 0.7 0.3 1.6 0.5 0.4 0.1 0.9 0.1c0.4 0.1 0.7 0.1 1.1 0.1 0.8 0.1 1.5 0.1 2.3 0.1 0.8-0.1 1.6-0.2 2.3-0.3 0.4 0 0.9-0.1 1.3-0.2q0.5-0.1 1-0.3c0.2-0.1 0.4-0.1 0.7-0.2q0.3-0.2 0.5-0.3 1-0.8 1.8-1.7c0.4-0.5 0.8-1 1.2-1.5 0.2-0.3 0.5-0.6 0.7-0.9 0.2-0.3 0.5-0.5 0.7-0.8q0.8-0.9 1.7-1.7c0.5-0.6 1.1-1.1 1.7-1.6 0.4-0.2 0.7-0.4 1.1-0.6 0.4-0.2 0.8-0.4 1.3-0.5 0.7-0.2 1.4-0.4 2.1-0.6q0.3-0.1 0.6-0.2 0.4-0.2 0.8-0.3c0.3-0.2 0.5-0.3 0.8-0.4 0.5-0.3 1-0.6 1.5-0.9q0.5-0.4 0.9-0.7c0.3-0.2 0.5-0.5 0.7-0.7 0.6-0.7 1-1.3 1.5-2 0.1-0.3 0.3-0.6 0.4-0.8-0.2-0.2-0.2-0.2-0.3-0.1zm-23.6 13.3q0 0 0 0 0 0 0 0 0 0 0 0zm0 0q0.1 0 0.1-0.1 0 0.1-0.1 0.1zm0 0q0 0 0 0 0 0 0 0zm5.9-32.8c-0.3-0.2-0.6-0.4-0.9-0.6-0.3-0.2-0.7-0.4-1-0.7-0.3-0.2-0.6-0.4-0.9-0.6-0.4-0.3-0.8-0.5-1.2-0.8q-0.5-0.3-1-0.5c-1.1-0.4-2.1-0.7-3.2-0.9-0.6-0.2-1.2-0.3-1.8-0.5-0.5-0.1-1-0.2-1.6-0.3-0.8-0.1-1.7-0.2-2.5-0.1q-0.4 0.1-0.9 0.2c-0.4 0.1-0.7 0.2-1.1 0.3-0.3 0.1-0.6 0.3-1 0.4-0.4 0.1-0.7 0.2-1.1 0.3-0.9 0.2-1.7 0.3-2.5 0.4q-0.6 0-1.2 0-0.6 0-1.3 0c-1.2 0-2.3-0.3-3.4-0.5-0.6-0.1-1.1-0.2-1.7-0.3-0.5-0.1-1-0.3-1.6-0.3-0.4-0.1-0.7-0.1-1.1-0.1-0.4 0-0.8 0-1.1 0-0.3 0.1-0.6 0.1-0.9 0.2q-0.4 0.2-0.9 0.3c-0.6 0.2-1.2 0.4-1.8 0.6-0.5 0.2-0.9 0.4-1.3 0.7q-0.7 0.4-1.3 0.8c-0.5 0.3-0.9 0.6-1.3 0.8-0.4 0.3-0.9 0.6-1.3 0.9q-0.6 0.5-1.2 1-0.6 0.6-1.2 1.1c-0.1 0.1-0.3 0.3-0.5 0.4 0.1 0 0.2 0 0.3-0.1 0.2 0 0.4 0 0.7 0 0.2 0 0.4 0 0.5 0.1 0.4 0 0.8 0.1 1.2 0.1 0.7 0.1 1.5 0.3 2.3 0.4 0.8 0.1 1.6 0.3 2.4 0.5 0.2 0.1 0.3 0.1 0.5 0.1 0.7 0.2 1.5 0.2 2.2 0.3 0.4 0.1 0.8 0.1 1.3 0.1q0.6 0 1.2 0c1.1-0.1 2.2-0.2 3.3-0.4 0.6-0.1 1.1-0.2 1.6-0.3q0.9-0.2 1.7-0.4c0.3-0.1 0.6-0.2 1-0.3 0.3-0.1 0.7-0.3 1.1-0.4 0.7-0.3 1.5-0.6 2.3-0.9 0.3-0.1 0.7-0.2 1-0.3 0.4-0.2 0.8-0.3 1.3-0.4q1-0.3 2.1-0.3 0.1 0 0.2 0c0.7 0 1.3 0.1 1.9 0.3 0.2 0 0.4 0.1 0.5 0.1q0 0 0.1 0 0 0 0.1 0h0.1c0.3 0.1 0.7 0.2 1.1 0.3 0.3 0 0.6 0.1 1 0.1q0.6 0.1 1.2 0.1c0.7 0 1.5 0.1 2.2 0.1 0.3 0 0.5-0.1 0.7-0.1 0.3 0 0.6 0 0.8-0.1 0.6 0 1.2-0.1 1.8-0.1 0.7 0 1.4-0.1 2.1-0.1 0.7 0 1.5 0 2.2 0 0.2 0 0.5 0 0.8 0.1-0.4-0.3-0.7-0.5-1-0.7zm-43.8 3.7q0.1 0.1 0.2 0.1c0.1 0.1 0.1 0.2 0.2 0.3 0.4 0.3 0.7 0.6 1 1q1 1 2 1.8c1.3 0.9 2.7 1.7 4.1 2.4q0.8 0.3 1.7 0.6c0.5 0.2 1.1 0.3 1.7 0.5q0.5 0.1 1.1 0c0.3 0 0.7 0 1.1 0q1-0.1 1.9-0.2c1.3-0.2 2.7-0.5 4-0.6q0 0 0 0 0.1 0 0.1 0 0.1 0 0.1 0c0.5 0 1-0.1 1.4-0.2q0 0 0 0c0.2 0 0.4 0 0.6-0.1 0.3 0 0.7-0.1 1.1-0.2 0.3 0 0.7-0.1 1-0.2 0.4-0.1 0.8-0.1 1.2-0.1q0.6 0 1.2 0c0.5 0.1 0.9 0.1 1.3 0.2 0.4 0 0.8 0.1 1.2 0.2 0.8 0.2 1.6 0.4 2.5 0.6 0.1 0 0.3 0 0.4 0 0.7 0.1 1.4 0.1 2 0.1 0.5 0 0.9 0 1.3 0 0.3 0 0.7-0.1 1-0.1q0.5-0.1 1-0.3 0.5-0.1 0.9-0.3c0.3-0.1 0.6-0.3 0.9-0.4q0.4-0.2 0.9-0.5c0.6-0.4 1.1-0.7 1.7-1.1 0.3-0.2 0.5-0.4 0.8-0.7 0.3-0.2 0.6-0.5 0.8-0.8 0.3-0.2 0.6-0.5 0.9-0.8 0.3-0.2 0.5-0.5 0.8-0.8 0.3-0.3 0.6-0.6 0.9-0.9 0.3-0.3 0.6-0.5 0.9-0.8 0.1 0 0.2-0.1 0.3-0.2-0.6 0-1.1-0.1-1.6-0.1-0.3 0-0.6-0.1-0.9-0.1q-0.4 0-0.8 0c-0.6 0-1.1 0-1.7 0q-0.5 0-1 0.1-0.6 0-1.2 0c-0.3 0-0.6 0.1-0.9 0.1q-0.5 0.1-0.9 0.1-1.2 0.1-2.3 0c-0.7 0-1.3 0-2-0.1-0.4 0-0.7 0-1.1-0.1-0.4-0.1-0.7-0.2-1.1-0.3-0.1 0-0.1 0-0.2 0-0.1-0.1-0.2-0.1-0.4-0.1q-0.1 0-0.1-0.1 0 0-0.1 0c-0.1 0-0.3 0-0.4-0.1q-0.3 0-0.7-0.1-0.6-0.2-1.2-0.2-0.4 0-0.9 0.1-0.4 0.1-0.9 0.2c-0.3 0.1-0.6 0.2-1 0.4-0.3 0.1-0.7 0.2-1.1 0.4-0.7 0.2-1.4 0.5-2.2 0.8q-1.2 0.4-2.4 0.8c-0.8 0.2-1.6 0.4-2.4 0.6q-1.2 0.3-2.4 0.3c-0.4 0.1-0.7 0.1-1.1 0.1q-0.7 0.1-1.4 0.1c-0.4 0-0.8 0-1.3 0-0.4 0-0.8-0.1-1.2-0.1-0.8 0-1.5-0.1-2.3-0.3-0.3-0.1-0.7-0.2-1.1-0.3q-0.7-0.1-1.4-0.2c-0.5-0.1-1-0.2-1.5-0.3-0.4-0.1-0.9-0.1-1.4-0.2-0.2 0-0.4 0-0.7-0.1q-0.3 0-0.6 0c0.1 0.1-0.1 0.1-0.3 0.2zm20.6 5.7q0.1 0 0.2 0-0.1 0-0.2 0z"/>
		</g>
	</g>
	<path id="Layer" class="s0" d="m87.5 85.8c-0.1-0.1-0.1-0.1-0.1-0.1v-0.1q0 0.1 0.1 0.2z"/>
	<path id="Layer" class="s0" d="m50.6 156c0 0.1-0.1 0.1-0.1 0.1v0.1q0-0.2 0.1-0.2z"/>
	<g id="Layer">
		<g id="Layer">
			<g id="Layer">
				<path id="Layer" fill-rule="evenodd" class="s0" d="m318.1 113.6h-13.2q-0.3 0-0.3-0.4 0-0.4 0.1-0.5 0.1-0.1 0.3-0.2 0.2-0.1 0.5-0.4 0.3-0.3 0.7-1.1 0.3-0.8 0.3-1.6v-31.4q0-1.7-1.1-2.9-0.2-0.1-0.5-0.2-0.3-0.2-0.3-0.6 0-0.5 0.3-0.5h13.1q2 0 3.9 0.8 1.9 0.8 3.2 2.1 2.9 2.9 2.9 6.2 0 2.6-1.2 4.3-1.3 1.8-4.2 4v0.5q8.5 3.5 8.5 10.8 0 3.9-3.5 7.4-1.6 1.6-4.1 2.7-2.5 1-5.4 1zm0.9-4q1.8 0 3.2-0.8 1.5-0.8 2.3-1.7 1.8-1.9 1.8-4.6 0-4.2-2.8-6.4-2.8-2.3-7.5-2.3h-3.2q-0.3 0-0.3-0.6v-2.8q0-0.7 0.3-0.7h3.2q3.9 0 5.6-2 1.8-2 1.8-4.3 0-1.5-0.5-2.6-0.5-1.1-1.7-2-1.1-0.8-2.4-1l-0.5-0.1h-5.7q-0.5 0-1 0.4-0.4 0.3-0.4 0.9v29.4q0 0.5 0.4 0.9 0.5 0.3 1 0.3z"/>
			</g>
		</g>
	</g>
	<g id="Layer">
		<g id="Layer">
			<g id="Layer">
				<path id="Layer" fill-rule="evenodd" class="s0" d="m361.2 108.3q-2.7-2.8-4.4-6.7-1.6-3.9-1.6-8.1 0-4.2 1.7-7.9 1.7-3.8 4.5-6.6 2.8-2.7 6.6-4.4 3.8-1.6 7.5-1.6 3.7 0 6.9 0.9 6.4 2 10.7 7.2 4.2 5.2 4.2 12.3 0 4.2-1.5 8-1.5 3.8-4.2 6.7-2.7 2.9-6.8 4.7-4.1 1.7-8.7 1.7-4.6 0-8.4-1.7-3.8-1.6-6.5-4.5zm10.2 1.2q2.3 0.9 4.6 0.9 7.8 0 12.4-4.5 4.6-4.6 4.6-12.3 0-2.6-1.3-5.5-1.4-3-3.6-5.4-2.3-2.4-5.6-4-3.2-1.5-7.4-1.5-4.1 0-7.8 2-3.6 2.1-5.6 5.8-2 3.7-2 8.6 0 4.9 3.5 9.5 3.6 4.6 8.2 6.4z"/>
			</g>
		</g>
	</g>
	<g id="Layer">
		<g id="Layer">
			<g id="Layer">
				<path id="Layer" class="s0" d="m423 73.8h7.8q0.3 0 0.3 0.4 0 0.4-0.1 0.5-0.1 0.1-0.3 0.2-0.2 0.1-0.5 0.4-0.3 0.3-0.6 1.1-0.3 0.8-0.3 1.6v11.1h27.5v-11.1q0-1.7-1.2-2.9 0-0.1-0.4-0.2-0.3-0.2-0.3-0.6 0-0.5 0.3-0.5h7.9q0.3 0 0.3 0.4 0 0.4-0.1 0.5-0.1 0.1-0.3 0.2-0.2 0.1-0.5 0.4-0.3 0.3-0.6 1.1-0.4 0.8-0.4 1.6v31.4q0 1.7 1.2 2.9 0.1 0.1 0.4 0.2 0.3 0.2 0.3 0.7 0 0.4-0.3 0.4h-7.9q-0.3 0-0.3-0.4 0-0.4 0.1-0.5 0.1-0.1 0.3-0.2 0.2-0.1 0.5-0.4 0.3-0.3 0.7-1.1 0.3-0.8 0.3-1.6v-16.3h-27.5v16.3q0 1.7 1.1 2.9 0.1 0.1 0.4 0.2 0.3 0.2 0.3 0.7 0 0.4-0.3 0.4h-7.8q-0.4 0-0.4-0.4 0-0.4 0.2-0.5 0.1-0.1 0.3-0.2 0.2-0.1 0.5-0.4 0.3-0.3 0.6-1.1 0.3-0.8 0.3-1.6v-31.4q0-1.7-1.1-2.9-0.1-0.1-0.4-0.2-0.4-0.2-0.4-0.6 0-0.5 0.4-0.5z"/>
			</g>
		</g>
	</g>
	<g id="Layer">
		<g id="Layer">
			<g id="Layer">
				<path id="Layer" fill-rule="evenodd" class="s0" d="m495.1 108.3q-2.7-2.8-4.3-6.7-1.6-3.9-1.6-8.1 0-4.2 1.7-7.9 1.7-3.8 4.5-6.6 2.8-2.7 6.5-4.4 3.8-1.6 7.5-1.6 3.8 0 7 0.9 6.4 2 10.7 7.2 4.2 5.2 4.2 12.3 0 4.2-1.5 8-1.5 3.8-4.2 6.7-2.7 2.9-6.8 4.7-4.2 1.7-8.7 1.7-4.6 0-8.4-1.7-3.8-1.6-6.6-4.5zm10.2 1.2q2.4 0.9 4.7 0.9 7.8 0 12.4-4.5 4.6-4.6 4.6-12.3 0-2.6-1.4-5.5-1.3-3-3.6-5.4-2.2-2.4-5.5-4-3.3-1.5-7.4-1.5-4.1 0-7.8 2-3.7 2.1-5.7 5.8-2 3.7-2 8.6 0 4.9 3.6 9.5 3.6 4.6 8.1 6.4z"/>
			</g>
		</g>
	</g>
	<g id="Layer">
		<g id="Layer">
			<g id="Layer">
				<path id="Layer" class="s0" d="m576.3 110.8q5.4 0 9.8-2.4 4.3-2.5 7.1-6.7 0.3-0.5 0.5-0.3 0.2 0.2 0.4 0.5l0.8 1.1q0.3 0.6 0.2 0.8-1.4 2.9-4.9 5.8-6.3 5.3-13.9 5.3-4.5 0-8.3-1.7-3.9-1.7-6.6-4.6-2.6-2.9-4.1-6.7-1.5-3.9-1.5-8 0-4.2 1.6-7.9 1.6-3.8 4.4-6.6 2.7-2.7 6.5-4.4 3.8-1.7 7.6-1.7 4.6 0 9.2 1.8l1.1 0.4q0.3 0.1 0.7-0.2 0.5-0.3 1-0.3 0.4 0 0.7 0.5 0.1 0.1 0.1 0.5-0.1 0.7 0.6 3.2l0.6 2.7q0.2 1.1 0.2 1.3 0 0.2-0.6 0.5-0.6 0.3-0.7 0.1-2-3.5-5.1-4.8-3.1-1.4-7.6-1.4-4.6 0-8.2 2.1-3.7 2.1-5.7 5.7-2 3.7-2 8.4 0 3.1 1.4 6.2 1.4 3.1 3.7 5.5 2.2 2.3 5.1 3.8 3 1.5 5.9 1.5z"/>
			</g>
		</g>
	</g>
	<g id="Layer">
		<g id="Layer">
			<g id="Layer">
				<path id="Layer" class="s0" d="m620.4 73.8h7.9q0.3 0 0.3 0.4 0 0.4-0.1 0.5-0.1 0.1-0.3 0.2-0.2 0.1-0.5 0.4-0.3 0.3-0.6 1.1-0.4 0.8-0.4 1.6v11.1h27.6v-11.1q0-1.7-1.2-2.9-0.1-0.1-0.4-0.2-0.3-0.2-0.3-0.6 0-0.5 0.3-0.5h7.9q0.3 0 0.3 0.4 0 0.4-0.1 0.5-0.1 0.1-0.3 0.2-0.2 0.1-0.5 0.4-0.3 0.3-0.6 1.1-0.4 0.8-0.4 1.6v31.4q0 1.7 1.2 2.9 0.1 0.1 0.4 0.2 0.3 0.2 0.3 0.7 0 0.4-0.3 0.4h-7.9q-0.3 0-0.3-0.4 0-0.4 0.1-0.5 0.1-0.1 0.3-0.2 0.2-0.1 0.5-0.4 0.3-0.3 0.7-1.1 0.3-0.8 0.3-1.6v-16.3h-27.6v16.3q0 1.7 1.2 2.9 0.1 0.1 0.4 0.2 0.3 0.2 0.3 0.7 0 0.4-0.3 0.4h-7.9q-0.3 0-0.3-0.4 0-0.4 0.1-0.5 0.1-0.1 0.3-0.2 0.2-0.1 0.5-0.4 0.3-0.3 0.7-1.1 0.3-0.8 0.3-1.6v-31.4q0-1.7-1.1-2.9-0.1-0.1-0.5-0.2-0.3-0.2-0.3-0.6 0-0.5 0.3-0.5z"/>
			</g>
		</g>
	</g>
	<g id="Layer">
		<g id="Layer">
			<g id="Layer">
				<path id="Layer" class="s0" d="m687.9 73.8h7.8q0.4 0 0.4 0.4 0 0.4-0.2 0.5-0.1 0.1-0.3 0.2-0.2 0.1-0.5 0.4-0.3 0.3-0.6 1.1-0.3 0.8-0.3 1.6v31.4q0 1.7 1.1 2.9 0.1 0.1 0.4 0.2 0.4 0.2 0.4 0.7 0 0.4-0.4 0.4h-7.8q-0.3 0-0.3-0.4 0-0.4 0.1-0.5 0.1-0.1 0.3-0.2 0.2-0.1 0.5-0.4 0.3-0.3 0.6-1.1 0.3-0.8 0.3-1.6v-31.4q0-1.7-1.1-2.9-0.1-0.1-0.4-0.2-0.3-0.2-0.3-0.6 0-0.5 0.3-0.5z"/>
			</g>
		</g>
	</g>
	<g id="Layer">
		<g id="Layer">
			<g id="Layer">
				<path id="Layer" class="s0" d="m742.3 110.8q5.5 0 9.9-2.4 4.3-2.5 7.1-6.7 0.3-0.5 0.5-0.3 0.1 0.2 0.4 0.5l0.7 1.1q0.4 0.6 0.3 0.8-1.5 2.9-4.9 5.8-6.3 5.3-14 5.3-4.4 0-8.3-1.7-3.8-1.7-6.5-4.6-2.6-2.9-4.1-6.7-1.6-3.9-1.6-8 0-4.2 1.7-7.9 1.6-3.8 4.4-6.6 2.7-2.7 6.5-4.4 3.7-1.7 7.6-1.7 4.6 0 9.2 1.8l1.1 0.4q0.3 0.1 0.7-0.2 0.4-0.3 0.9-0.3 0.5 0 0.8 0.5 0.1 0.1 0.1 0.5-0.1 0.7 0.5 3.2l0.6 2.7q0.3 1.1 0.3 1.3 0 0.2-0.6 0.5-0.7 0.3-0.7 0.1-2.1-3.5-5.1-4.8-3.1-1.4-7.6-1.4-4.6 0-8.3 2.1-3.6 2.1-5.6 5.7-2 3.7-2 8.4 0 3.1 1.4 6.2 1.4 3.1 3.6 5.5 2.3 2.3 5.2 3.8 2.9 1.5 5.8 1.5z"/>
			</g>
		</g>
	</g>
	<g id="Layer">
		<g id="Layer">
			<g id="Layer">
				<path id="Layer" fill-rule="evenodd" class="s0" d="m363 161.6h-7.8q-0.2 0-0.2-0.3 0-0.3 0.1-0.3 0-0.1 0.2-0.1 0.1-0.1 0.3-0.3 0.2-0.2 0.4-0.7 0.2-0.5 0.2-1v-20.1q0-1.2-0.7-1.9-0.1-0.1-0.3-0.2-0.2-0.1-0.2-0.3 0-0.3 0.2-0.3h7.1q3.8 0 7.2 2 2.5 1.5 4.1 4.2 1.6 2.6 1.6 6.4 0 2.5-0.9 4.8-0.9 2.3-2.4 4.1-1.6 1.8-3.9 2.9-2.3 1.1-5 1.1zm-3.8-3q0 0.5 1 0.5h1.7q6.4 0 8.8-4.3 1.4-2.5 1.4-6.1 0-4.3-2.4-7.1-1.1-1.5-3.1-2.2-2-0.9-4.6-0.9h-2.4q-0.2 0-0.3 0.1-0.1 0.1-0.1 0.3z"/>
			</g>
		</g>
	</g>
	<g id="Layer">
		<g id="Layer">
			<g id="Layer">
				<path id="Layer" class="s0" d="m405.2 146.3q1.1 0 1.8-0.7 0.1-0.1 0.2-0.3 0.1-0.2 0.4-0.2 0.3 0 0.3 0.2v4.5q0 0.2-0.3 0.2-0.3 0-0.3 0-0.1-0.1-0.1-0.2-0.1-0.2-0.3-0.4-0.2-0.2-0.7-0.4-0.5-0.2-1-0.2h-9.9v10.3h10.4q1.7 0 2.1-0.3 0.4-0.4 0.6-0.6 0.2-0.2 0.2-0.2 0.1 0 0.3 0.1 0.3 0 0.3 0.1 0 0.1-0.2 0.6l-0.5 1.3q-0.3 0.7-0.4 1-0.1 0.4-0.3 0.5h-16.5q-0.2 0-0.2-0.3 0-0.3 0.1-0.3 0-0.1 0.2-0.1 0.1-0.1 0.3-0.3 0.2-0.2 0.4-0.7 0.2-0.5 0.2-1v-20.1q0-1.2-0.7-1.9-0.1-0.1-0.3-0.2-0.2-0.1-0.2-0.3 0-0.3 0.2-0.3h16.5q0.2 0 0.3 0.4 0.1 0.4 0.4 1.1l0.5 1.2q0.2 0.6 0.2 0.6 0 0.1-0.3 0.2-0.2 0.1-0.3 0.1 0 0-0.1-0.1-0.1-0.1-0.2-0.2-0.1-0.2-0.5-0.5-0.4-0.3-2.1-0.3h-10.4v7.7z"/>
			</g>
		</g>
	</g>
	<g id="Layer">
		<g id="Layer">
			<g id="Layer">
				<path id="Layer" class="s0" d="m437.9 159.8q3.5 0 6.3-1.6 2.8-1.6 4.6-4.3 0.2-0.3 0.3-0.2 0.1 0.2 0.3 0.4l0.4 0.7q0.3 0.4 0.2 0.5-0.9 1.9-3.1 3.7-4.1 3.4-9 3.4-2.8 0-5.3-1.1-2.5-1.1-4.2-2.9-1.7-1.9-2.6-4.4-1-2.4-1-5.1 0-2.6 1.1-5 1-2.5 2.8-4.2 1.7-1.8 4.1-2.9 2.4-1 4.9-1 2.9 0 5.9 1.1l0.7 0.3q0.2 0 0.5-0.2 0.2-0.1 0.6-0.1 0.3 0 0.4 0.2 0.1 0.1 0.1 0.4 0 0.4 0.4 2.1l0.4 1.7q0.1 0.6 0.1 0.8 0 0.1-0.4 0.3-0.4 0.2-0.5 0.1-1.3-2.3-3.2-3.1-2-0.9-4.9-0.9-2.9 0-5.2 1.4-2.4 1.3-3.7 3.6-1.2 2.4-1.2 5.4 0 1.9 0.9 3.9 0.9 2 2.3 3.6 1.4 1.5 3.3 2.4 1.9 1 3.7 1z"/>
			</g>
		</g>
	</g>
	<g id="Layer">
		<g id="Layer">
			<g id="Layer">
				<path id="Layer" fill-rule="evenodd" class="s0" d="m469.3 158.2q-1.8-1.8-2.8-4.3-1-2.5-1-5.2 0-2.7 1.1-5.1 1-2.4 2.8-4.2 1.8-1.8 4.2-2.8 2.5-1.1 4.8-1.1 2.4 0 4.5 0.7 4.1 1.2 6.8 4.5 2.8 3.4 2.8 7.9 0 2.7-1 5.1-1 2.4-2.7 4.3-1.7 1.9-4.4 3-2.6 1.1-5.6 1.1-2.9 0-5.3-1-2.5-1.1-4.2-2.9zm6.5 0.7q1.5 0.6 3 0.6 5 0 7.9-2.9 3-2.9 3-7.8 0-1.7-0.9-3.6-0.8-1.9-2.3-3.4-1.4-1.6-3.5-2.6-2.1-1-4.8-1-2.6 0-5 1.4-2.3 1.3-3.6 3.7-1.3 2.3-1.3 5.4 0 3.2 2.3 6.1 2.3 3 5.2 4.1z"/>
			</g>
		</g>
	</g>
	<g id="Layer">
		<g id="Layer">
			<g id="Layer">
				<path id="Layer" class="s0" d="m513.7 138.6q-0.3 0-0.6 0.3-0.2 0.2-0.2 0.5v19.5q0 1.1 0.8 1.8 0 0.1 0.2 0.2 0.2 0.1 0.2 0.4 0 0.3-0.2 0.3h-5q-0.2 0-0.2-0.3 0-0.3 0-0.3 0.1-0.1 0.2-0.1 0.2-0.1 0.3-0.3 0.2-0.2 0.5-0.7 0.2-0.5 0.2-1v-20.1q0-1.2-0.8-1.9 0-0.1-0.2-0.2-0.2-0.1-0.2-0.3 0-0.3 0.2-0.3h8q3.4 0 5.7 1.5 2.3 1.4 2.3 4.6 0 3.9-4 5.6-1.4 0.7-2.2 0.8-0.8 0-0.8 0.1l0.5 0.3q0.3 0.1 1.3 0.9 1 0.8 1.9 1.7 1 1 2.3 2.7 1.3 1.7 1.9 2.8l1.3 2.2q0.7 1.3 1.1 1.4 0.5 0.2 0.5 0.5 0 0.4-0.2 0.4h-5q-0.2 0-0.2-0.3 0-0.3 0-0.3 0.1-0.1 0.2-0.1 0.2-0.1 0.2-0.2 0.1-0.1 0.1-0.3 0-0.3-0.1-0.5-1.1-2.9-3-5.5-3.7-5-6.3-5.3-0.4-0.1-0.4-0.1 0-0.3 0-0.8v-0.9q0-0.2 0.1-0.2 3.9 0 6-1.5 1.7-1.2 1.7-3.2 0-2-1.6-2.9-1.6-0.9-3.6-0.9z"/>
			</g>
		</g>
	</g>
	<g id="Layer">
		<g id="Layer">
			<g id="Layer">
			</g>
		</g>
	</g>
	<g id="Layer">
		<g id="Layer">
			<g id="Layer">
				<path id="Layer" class="s0" d="m565.4 136.1h5.1q0.2 0 0.2 0.2 0 0.3-0.1 0.4-0.1 0-0.2 0.1-0.1 0-0.3 0.2-0.2 0.2-0.4 0.7-0.2 0.6-0.2 1.1v20.1q0 1.1 0.7 1.8 0.1 0.1 0.3 0.2 0.2 0.1 0.2 0.4 0 0.3-0.2 0.3h-5.1q-0.2 0-0.2-0.3 0-0.3 0.1-0.3 0.1-0.1 0.2-0.1 0.1-0.1 0.3-0.3 0.2-0.2 0.4-0.7 0.2-0.5 0.2-1v-20.1q0-1.2-0.7-1.9-0.1-0.1-0.3-0.2-0.2-0.1-0.2-0.3 0-0.3 0.2-0.3z"/>
			</g>
		</g>
	</g>
	<g id="Layer">
		<g id="Layer">
			<g id="Layer">
				<path id="Layer" fill-rule="evenodd" class="s0" d="m595.8 161.6h-7.9q-0.2 0-0.2-0.3 0-0.3 0.1-0.3 0.1-0.1 0.2-0.1 0.1-0.1 0.3-0.3 0.2-0.2 0.4-0.7 0.2-0.5 0.2-1v-20.1q0-1.2-0.7-1.9-0.1-0.1-0.3-0.2-0.2-0.1-0.2-0.3 0-0.3 0.2-0.3h7.1q3.8 0 7.3 2 2.4 1.5 4 4.2 1.7 2.6 1.7 6.4 0 2.5-0.9 4.8-0.9 2.3-2.5 4.1-1.6 1.8-3.9 2.9-2.3 1.1-4.9 1.1zm-3.8-3q0 0.5 0.9 0.5h1.8q6.3 0 8.7-4.3 1.5-2.5 1.5-6.1 0-4.3-2.4-7.1-1.2-1.5-3.2-2.2-2-0.9-4.6-0.9h-2.4q-0.1 0-0.2 0.1-0.1 0.1-0.1 0.3z"/>
			</g>
		</g>
	</g>
	<g id="Layer">
		<g id="Layer">
			<g id="Layer">
				<path id="Layer" class="s0" d="m637.9 146.3q1.1 0 1.9-0.7 0-0.1 0.1-0.3 0.1-0.2 0.4-0.2 0.3 0 0.3 0.2v4.5q0 0.2-0.3 0.2-0.2 0-0.3 0 0-0.1-0.1-0.2-0.1-0.2-0.3-0.4-0.1-0.2-0.7-0.4-0.5-0.2-1-0.2h-9.8v10.3h10.3q1.8 0 2.1-0.3 0.5-0.4 0.6-0.6 0.2-0.2 0.3-0.2 0.1 0 0.3 0.1 0.2 0 0.2 0.1 0 0.1-0.2 0.6l-0.5 1.3q-0.3 0.7-0.4 1-0.1 0.4-0.3 0.5h-16.5q-0.2 0-0.2-0.3 0-0.3 0.1-0.3 0.1-0.1 0.2-0.1 0.1-0.1 0.3-0.3 0.2-0.2 0.4-0.7 0.2-0.5 0.2-1v-20.1q0-1.2-0.7-1.9-0.1-0.1-0.3-0.2-0.2-0.1-0.2-0.3 0-0.3 0.2-0.3h16.5q0.2 0 0.3 0.4 0.1 0.4 0.4 1.1l0.5 1.2q0.2 0.6 0.2 0.6 0 0.1-0.2 0.2-0.2 0.1-0.3 0.1-0.1 0-0.2-0.1 0-0.1-0.2-0.2 0-0.2-0.5-0.5-0.3-0.3-2.1-0.3h-10.3v7.7z"/>
			</g>
		</g>
	</g>
	<g id="Layer">
		<g id="Layer">
			<g id="Layer">
				<path id="Layer" fill-rule="evenodd" class="s0" d="m658.1 159.2q0 0 10.2-22.9 0.1-0.2 0.8-0.2 0.7 0 0.8 0.2l10.5 22.9q0.6 1.4 1.2 1.7 0.2 0.1 0.2 0.4 0 0.3-0.2 0.3h-5.6q-0.2 0-0.2-0.3 0-0.3 0-0.3 0.1-0.1 0.3-0.1 0.1-0.1 0.2-0.2 0.5-0.6 0.5-1.1 0-0.5-0.1-0.8l-2.2-5.3h-11.3l-2.2 5.3q-0.1 0.3-0.1 0.5c0 0 0 0.2 0 0.2q0 0.6 0.6 1.2 0.1 0.1 0.3 0.2 0.2 0.1 0.2 0.4 0 0.3-0.2 0.3h-4.9q-0.2 0-0.2-0.3 0-0.3 0-0.3 0.1-0.1 0.2-0.1 0.6-0.3 1.2-1.7zm6.2-8.2q0 0 0 0.1 0 0.1 0.1 0.1h8.9q0 0 0-0.1 0.1-0.1 0-0.1l-4.5-9.8h-0.1z"/>
			</g>
		</g>
	</g>
	<g id="Layer">
		<g id="Layer">
			<g id="Layer">
				<path id="Layer" class="s0" d="m700.8 161.4q-0.5-0.1-1-0.3-0.6-0.2-0.8-0.2h-0.1q-0.6 0-0.9 0.6 0 0.1 0 0.1h-0.5q-0.1 0-0.1-0.1l-1.3-4.6q-0.1-0.3 0.5-0.3 0.2 0 0.3 0.1 0 0 0.1 0.1 0 0 0.1 0.2 2 2.5 6 2.5 2.1 0 3.5-1.1 1.4-1.1 1.4-3.2 0-1.4-0.5-2.1-0.5-0.7-0.7-1.1-0.7-0.8-3-2.1-2.4-1.3-3.9-2.4-3.7-2.7-3.7-5.5 0-2.9 1.8-4.4 1.8-1.6 4.7-1.6 1.7 0 3.5 0.9 0.9 0.4 1.3 0.5 0.4 0.2 0.5-0.1 0.2-0.3 0.2-0.3 0.7-0.1 0.7 0.2l0.5 5q0 0.1-0.7 0.1-0.1 0-0.2-0.3-0.5-1.5-2.3-2.6-1.7-1-3.5-1-3.8 0-3.8 3.1 0 2.2 4.1 4.5l3 1.6q2.7 1.5 3.8 3.2 1.1 1.8 1.1 3.8v0.1q-0.4 2.7-1 3.7-0.9 1.5-2.5 2.5-1.7 1-3.8 1-1.2-0.1-1.9-0.3z"/>
			</g>
		</g>
	</g>
</svg>