<svg xmlns="http://www.w3.org/2000/svg" xmlns:xlink="http://www.w3.org/1999/xlink" width="440" zoomAndPan="magnify" viewBox="0 0 330 468.749983" height="625" preserveAspectRatio="xMidYMid meet" version="1.0"><defs><clipPath id="0ec9f58a00"><path d="M 83 0 L 253 0 L 253 468.5 L 83 468.5 Z M 83 0 " clip-rule="nonzero"/></clipPath></defs><path fill="#f1d2bb" d="M 263.707031 106.265625 C 253.65625 112.808594 243.789062 119.902344 234.949219 127.96875 C 224.214844 137.753906 212.164062 140.957031 198.261719 139.378906 C 193.855469 138.878906 189.457031 138.304688 185.042969 137.972656 C 170.167969 136.855469 156.847656 140.855469 148.828125 153.882812 C 140.234375 167.839844 140.585938 182.84375 149.28125 197.105469 C 155.34375 207.042969 163.710938 214.914062 173.734375 220.542969 C 195.945312 233.011719 218.976562 243.21875 245.976562 241.796875 C 256.734375 236.640625 265.378906 228.332031 271.308594 217.617188 C 285.703125 191.585938 299.734375 165.347656 313.65625 139.054688 C 318.203125 130.464844 320.410156 121.296875 316.347656 110.390625 C 297.5 95.847656 281.945312 94.414062 263.707031 106.265625 " fill-opacity="1" fill-rule="nonzero"/><path fill="#f1d2bb" d="M 227.074219 311.449219 C 218.1875 309.023438 209.183594 307.058594 200.257812 304.785156 C 186.179688 301.1875 172.136719 297.464844 158.058594 293.859375 C 141.308594 289.574219 128.464844 279.90625 118.546875 265.875 C 112.097656 256.757812 105.132812 248.011719 98.570312 238.984375 C 92.113281 230.097656 83.796875 223.738281 73.796875 219.300781 C 46.847656 207.332031 22.566406 219.445312 15.914062 248.085938 C 11.03125 269.117188 13.476562 289.511719 20.269531 309.679688 C 28.269531 333.433594 41.5625 354.328125 55.5 374.8125 C 61.195312 383.183594 66.96875 391.90625 74.378906 398.617188 C 96.085938 418.289062 120.429688 434.304688 147.394531 445.921875 C 163.453125 452.84375 180.203125 457.496094 199.601562 457.632812 C 207.636719 456.519531 217.378906 455.863281 226.800781 453.75 C 252.527344 447.972656 272.9375 424.355469 275.125 398.128906 C 276.472656 381.964844 274.414062 366.039062 268.734375 350.839844 C 261.339844 331.035156 247.929688 317.132812 227.074219 311.449219 " fill-opacity="1" fill-rule="nonzero"/><g clip-path="url(#0ec9f58a00)"><path fill="#da7a2d" d="M 106.570312 288.246094 C 108.699219 294.292969 111.226562 300.207031 114.066406 305.949219 C 117.878906 313.636719 122.292969 321.039062 127.015625 328.199219 C 129.472656 331.925781 131.976562 335.617188 134.398438 339.359375 C 136.871094 343.203125 139.300781 347.070312 141.621094 351.011719 C 144.125 355.3125 146.554688 359.660156 148.808594 364.101562 C 151.101562 368.621094 153.226562 373.238281 155.191406 377.921875 C 157.152344 382.59375 158.84375 387.363281 160.460938 392.15625 C 161.308594 394.667969 162.074219 397.203125 162.859375 399.730469 C 163.609375 402.148438 164.328125 404.578125 165.003906 407.023438 C 166.113281 411.167969 167.035156 415.363281 167.859375 419.574219 C 168.378906 422.195312 168.8125 424.832031 169.242188 427.472656 C 169.21875 432.949219 169.164062 438.429688 169.050781 443.910156 C 168.894531 451.441406 168.53125 458.964844 168.203125 466.484375 C 168.238281 466.871094 168.367188 467.210938 168.578125 467.527344 C 168.894531 467.972656 169.375 468.285156 169.910156 468.394531 C 170.464844 468.503906 171.054688 468.375 171.515625 468.050781 C 171.921875 467.769531 172.332031 467.234375 172.378906 466.722656 C 172.503906 465.25 172.617188 463.773438 172.71875 462.296875 C 173.058594 462.007812 173.300781 461.613281 173.375 461.148438 C 173.492188 460.402344 173.59375 459.652344 173.707031 458.90625 C 173.820312 458.859375 173.949219 458.832031 174.050781 458.757812 C 174.378906 458.53125 174.707031 458.113281 174.734375 457.707031 C 174.933594 454.839844 175.289062 451.984375 175.710938 449.144531 C 178.371094 441.308594 182.207031 433.953125 186.296875 426.789062 C 188.449219 423.015625 190.742188 419.324219 193.015625 415.617188 C 195.261719 411.949219 197.523438 408.289062 199.742188 404.597656 C 201.902344 401.023438 204 397.417969 205.96875 393.734375 C 207.933594 390.0625 209.699219 386.296875 211.382812 382.492188 C 213.230469 378.347656 214.925781 374.128906 216.648438 369.929688 C 218.382812 365.695312 220.046875 361.433594 221.773438 357.195312 C 224.636719 350.15625 227.566406 343.148438 230.820312 336.285156 C 234.0625 329.464844 237.691406 322.800781 241.832031 316.496094 C 242.964844 314.835938 244.207031 313.269531 245.46875 311.714844 C 246.125 310.886719 246.789062 310.066406 247.429688 309.226562 C 248.105469 308.347656 248.730469 307.433594 249.324219 306.492188 C 249.46875 306.199219 249.527344 305.886719 249.5 305.570312 C 249.460938 305.101562 249.242188 304.667969 248.890625 304.371094 C 248.148438 303.722656 247.042969 303.835938 246.386719 304.546875 C 245.320312 305.707031 244.296875 306.90625 243.289062 308.117188 C 233.0625 316.296875 223.328125 325.097656 214.542969 334.828125 C 209.964844 339.917969 205.617188 345.238281 201.632812 350.808594 C 197.660156 356.355469 193.9375 362.097656 190.667969 368.085938 C 189.042969 371.066406 187.488281 374.078125 186.066406 377.148438 C 184.617188 380.261719 183.289062 383.433594 182.078125 386.636719 C 181.746094 387.511719 181.449219 388.398438 181.132812 389.277344 C 181.273438 387.585938 181.410156 385.886719 181.550781 384.191406 C 183.621094 359.394531 186.179688 334.550781 191.386719 310.183594 C 192.570312 304.640625 193.875 299.128906 195.335938 293.65625 C 197.789062 284.613281 200.683594 275.699219 204.117188 266.984375 C 206.714844 260.386719 209.679688 253.917969 212.988281 247.640625 C 213.183594 247.734375 213.394531 247.804688 213.617188 247.789062 C 216.574219 247.558594 219.53125 247.402344 222.492188 247.140625 C 226.339844 246.792969 230.179688 246.300781 233.96875 245.507812 C 237.675781 244.726562 241.339844 243.652344 244.710938 241.875 C 247.625 240.339844 250.320312 238.0625 251.734375 235.015625 C 252.484375 233.417969 252.789062 231.667969 252.796875 229.910156 C 252.816406 227.78125 252.296875 225.53125 251.003906 223.804688 C 250.707031 223.398438 250.355469 223.019531 249.988281 222.675781 C 249.597656 222.308594 249.15625 222.019531 248.703125 221.734375 C 247.902344 221.226562 246.992188 220.90625 246.078125 220.664062 C 245.109375 220.414062 244.121094 220.339844 243.125 220.3125 C 242.164062 220.285156 241.203125 220.371094 240.257812 220.515625 C 239.085938 220.691406 237.929688 220.96875 236.796875 221.332031 C 236.195312 221.523438 235.605469 221.761719 235.023438 222.003906 C 236.09375 219.648438 236.84375 217.128906 237.074219 214.554688 C 237.222656 212.957031 237.148438 211.324219 236.886719 209.746094 C 236.636719 208.324219 236.210938 206.902344 235.53125 205.621094 C 234.9375 204.488281 234.144531 203.464844 233.121094 202.6875 C 232.167969 201.949219 230.996094 201.507812 229.804688 201.367188 C 228.472656 201.203125 227.125 201.480469 225.867188 201.929688 C 225.15625 202.1875 224.492188 202.546875 223.835938 202.925781 C 223.28125 203.242188 222.753906 203.59375 222.253906 203.996094 C 220.460938 205.410156 219.125 207.3125 218.105469 209.339844 C 217.976562 209.597656 217.867188 209.867188 217.746094 210.136719 C 216.871094 208.105469 215.40625 206.324219 213.605469 205.039062 C 212.304688 204.117188 210.847656 203.492188 209.292969 203.183594 C 207.785156 202.878906 206.1875 203.074219 204.757812 203.636719 C 203.464844 204.144531 202.347656 205.070312 201.449219 206.121094 C 200.804688 206.878906 200.296875 207.773438 199.925781 208.703125 C 199.28125 210.300781 199.058594 212.035156 199.058594 213.753906 C 199.058594 214.175781 199.074219 214.601562 199.101562 215.019531 C 199.234375 217.390625 199.839844 219.734375 200.535156 221.996094 C 201.292969 224.4375 202.246094 226.820312 203.308594 229.144531 C 205.332031 233.578125 207.734375 237.832031 210.261719 242.011719 C 210.835938 242.972656 211.429688 243.929688 212.027344 244.882812 C 212.019531 244.890625 212.011719 244.898438 212.007812 244.902344 C 211.816406 245.105469 211.730469 245.378906 211.730469 245.65625 C 211.730469 245.878906 211.804688 246.097656 211.90625 246.285156 C 207.085938 255.273438 202.917969 264.601562 199.359375 274.15625 C 197.210938 279.902344 195.308594 285.746094 193.570312 291.632812 C 191.832031 297.53125 190.269531 303.484375 188.886719 309.484375 C 186.09375 321.601562 183.917969 333.855469 182.121094 346.15625 C 180.3125 358.496094 178.898438 370.894531 177.539062 383.292969 C 176.339844 394.277344 175.257812 405.277344 174.113281 416.269531 C 174.085938 407.191406 173.910156 398.117188 173.632812 389.046875 C 172.839844 363.101562 171.242188 337.1875 169.882812 311.265625 C 169.328125 300.734375 168.828125 290.195312 168.421875 279.648438 C 168.773438 279.230469 168.960938 278.675781 168.820312 278.113281 C 168.644531 277.421875 168.46875 276.722656 168.300781 276.03125 C 167.980469 267.363281 167.71875 258.695312 167.570312 250.023438 C 167.425781 241.796875 167.414062 233.566406 167.488281 225.34375 C 167.574219 224.746094 167.671875 224.144531 167.757812 223.546875 C 167.804688 223.523438 167.867188 223.523438 167.914062 223.496094 C 168.328125 223.257812 168.738281 222.789062 168.835938 222.308594 C 169.429688 219.167969 170.335938 216.117188 171.554688 213.171875 C 173.234375 209.339844 175.417969 205.78125 177.957031 202.457031 C 183.082031 195.929688 189.253906 190.3125 194.992188 184.347656 C 200.75 178.351562 206.207031 172.027344 210.925781 165.171875 C 215.167969 159.007812 218.6875 152.335938 221.15625 145.265625 C 222.375 141.777344 223.234375 138.195312 223.882812 134.5625 C 224.566406 130.695312 225.007812 126.796875 225.21875 122.878906 C 225.488281 117.867188 225.304688 112.84375 224.859375 107.851562 C 224.832031 107.5 224.746094 107.195312 224.480469 106.929688 C 224.238281 106.6875 223.90625 106.550781 223.558594 106.550781 C 222.890625 106.550781 222.191406 107.140625 222.253906 107.851562 C 222.3125 108.5625 222.339844 109.273438 222.390625 109.976562 C 222.347656 110.078125 222.328125 110.179688 222.28125 110.28125 C 220.777344 113.832031 218.742188 117.136719 216.398438 120.191406 C 213.101562 124.40625 209.3125 128.21875 205.367188 131.820312 C 201.257812 135.574219 197.035156 139.191406 192.941406 142.949219 C 188.941406 146.640625 185.097656 150.488281 181.769531 154.800781 C 180.027344 157.058594 178.519531 159.46875 177.132812 161.953125 C 176.277344 163.472656 175.492188 165.03125 174.730469 166.585938 C 173.972656 168.132812 173.246094 169.695312 172.570312 171.28125 C 171.542969 173.707031 170.582031 176.15625 169.761719 178.664062 C 169.519531 179.382812 169.308594 180.113281 169.085938 180.835938 C 169.550781 173.929688 170.125 167.027344 170.84375 160.132812 C 171.378906 154.992188 172.015625 149.863281 172.664062 144.746094 C 173.292969 139.832031 174.125 134.964844 175.109375 130.113281 C 177.003906 120.773438 179.5 111.5625 181.871094 102.339844 C 184 94.066406 185.992188 85.777344 187.460938 77.371094 C 187.574219 77.296875 187.683594 77.195312 187.777344 77.082031 C 187.832031 77.019531 187.886719 76.964844 187.941406 76.90625 C 188.347656 76.503906 188.804688 76.167969 189.292969 75.867188 C 190.957031 74.921875 192.828125 74.371094 194.660156 73.84375 C 194.574219 73.871094 194.484375 73.890625 194.398438 73.917969 C 195.203125 73.695312 196 73.457031 196.800781 73.222656 C 197.152344 73.121094 197.515625 73.058594 197.875 72.976562 C 199.464844 72.691406 201.0625 72.414062 202.667969 72.191406 C 204.617188 71.949219 206.578125 71.8125 208.527344 71.667969 C 210.445312 71.542969 212.351562 71.414062 214.253906 71.261719 C 216.210938 71.113281 218.160156 70.90625 220.101562 70.648438 C 221.957031 70.410156 223.804688 70.105469 225.625 69.664062 C 227.457031 69.226562 229.257812 68.640625 231.023438 67.964844 C 232.796875 67.289062 234.53125 66.496094 236.175781 65.546875 C 238.484375 64.210938 240.582031 62.539062 242.433594 60.628906 C 244.148438 58.867188 245.664062 56.777344 246.375 54.40625 C 246.707031 53.300781 246.753906 52.171875 246.578125 51.039062 C 246.382812 49.828125 245.738281 48.722656 244.960938 47.792969 C 244.527344 47.285156 244.011719 46.875 243.5 46.46875 C 242.863281 45.972656 242.136719 45.574219 241.398438 45.242188 C 239.945312 44.589844 238.335938 44.367188 236.742188 44.523438 C 235.804688 44.617188 234.890625 44.863281 234.003906 45.1875 C 235.324219 43.398438 236.511719 41.488281 237.421875 39.449219 C 237.878906 38.421875 238.28125 37.363281 238.523438 36.265625 C 238.640625 35.746094 238.707031 35.210938 238.746094 34.683594 C 238.789062 34.152344 238.734375 33.632812 238.660156 33.097656 C 238.53125 32.140625 238.070312 31.261719 237.453125 30.53125 C 236.769531 29.71875 235.75 29.222656 234.761719 28.898438 C 234.171875 28.714844 233.554688 28.632812 232.941406 28.558594 C 232.222656 28.472656 231.492188 28.472656 230.769531 28.503906 C 229.015625 28.585938 227.335938 28.980469 225.71875 29.65625 C 222.550781 30.964844 219.863281 33.234375 217.46875 35.644531 C 216.996094 36.125 216.535156 36.621094 216.082031 37.121094 C 217.023438 35.5 217.921875 33.855469 218.746094 32.175781 C 220.289062 29.035156 221.71875 25.75 222.382812 22.300781 C 222.910156 19.578125 223.039062 16.550781 221.550781 14.09375 C 220.082031 11.660156 217.238281 10.300781 214.441406 10.238281 C 211.648438 10.171875 209.125 11.605469 207.203125 13.542969 C 204.867188 15.886719 203.148438 18.792969 201.710938 21.753906 C 200.257812 24.785156 199.054688 27.929688 197.984375 31.121094 C 198.300781 28.53125 198.578125 25.945312 198.753906 23.351562 C 198.984375 20.066406 199.101562 16.753906 198.917969 13.457031 C 198.84375 12.082031 198.714844 10.707031 198.484375 9.34375 C 198.28125 8.089844 198.003906 6.839844 197.585938 5.632812 C 197.238281 4.628906 196.773438 3.640625 196.148438 2.773438 C 195.554688 1.949219 194.816406 1.265625 193.929688 0.761719 C 193.050781 0.261719 192.054688 0.078125 191.054688 0.0664062 C 189.847656 0.0507812 188.636719 0.417969 187.527344 0.859375 C 186.09375 1.417969 184.746094 2.210938 183.574219 3.214844 C 183 3.707031 182.457031 4.25 181.964844 4.828125 C 181.476562 5.410156 181.050781 6.050781 180.65625 6.703125 C 179.871094 8.015625 179.3125 9.445312 178.863281 10.910156 C 178.402344 12.453125 178.121094 14.050781 177.964844 15.648438 C 177.816406 17.066406 177.753906 18.496094 177.753906 19.921875 C 177.753906 22.144531 177.910156 24.367188 178.148438 26.5625 C 178.34375 28.328125 178.601562 30.089844 178.898438 31.84375 C 178.074219 30.257812 177.164062 28.714844 176.109375 27.257812 C 174.113281 24.507812 171.507812 21.984375 168.246094 20.839844 C 167.398438 20.546875 166.546875 20.363281 165.644531 20.371094 C 164.921875 20.378906 164.230469 20.59375 163.601562 20.933594 C 163.046875 21.222656 162.582031 21.699219 162.222656 22.199219 C 161.796875 22.808594 161.511719 23.472656 161.28125 24.175781 C 161.023438 24.976562 160.875 25.808594 160.792969 26.65625 C 160.773438 26.75 160.734375 26.84375 160.710938 26.941406 C 160.433594 28.269531 160.28125 29.636719 160.203125 30.996094 C 160.191406 31.195312 160.191406 31.390625 160.191406 31.585938 C 160.191406 32.109375 160.226562 32.628906 160.253906 33.144531 C 160.304688 33.863281 160.382812 34.574219 160.488281 35.292969 C 160.679688 36.566406 160.976562 37.832031 161.390625 39.058594 C 161.890625 40.519531 162.433594 41.976562 163.015625 43.414062 C 163.5625 44.765625 164.199219 46.082031 164.875 47.367188 C 166.203125 49.875 167.738281 52.265625 169.339844 54.601562 C 167.480469 52.746094 165.570312 50.925781 163.582031 49.195312 C 161.917969 47.746094 160.183594 46.371094 158.378906 45.105469 C 157.03125 44.164062 155.628906 43.289062 154.140625 42.601562 C 152.761719 41.964844 151.25 41.414062 149.707031 41.605469 C 149.382812 41.644531 149.085938 41.734375 148.78125 41.847656 C 148.460938 41.96875 148.179688 42.160156 147.90625 42.371094 C 147.644531 42.566406 147.425781 42.835938 147.230469 43.109375 C 147 43.433594 146.839844 43.8125 146.695312 44.179688 C 146.5625 44.535156 146.480469 44.917969 146.417969 45.289062 C 146.332031 45.835938 146.277344 46.386719 146.269531 46.941406 C 146.261719 47.007812 146.261719 47.078125 146.261719 47.144531 C 146.261719 47.871094 146.335938 48.59375 146.472656 49.304688 C 146.730469 50.695312 147.285156 52.035156 147.988281 53.261719 C 149.625 56.117188 152.0625 58.433594 154.621094 60.460938 C 157.496094 62.730469 160.664062 64.613281 163.90625 66.296875 C 167.265625 68.03125 170.730469 69.554688 174.253906 70.898438 C 176.023438 71.566406 177.800781 72.171875 179.59375 72.738281 C 179.703125 72.847656 179.824219 72.941406 179.980469 72.996094 C 180.136719 73.050781 180.285156 73.113281 180.433594 73.179688 C 181.363281 73.59375 182.226562 74.128906 183.113281 74.628906 C 183.925781 75.109375 184.785156 75.523438 185.671875 75.835938 C 183.757812 87.050781 180.636719 98.023438 177.476562 108.933594 C 175.777344 114.820312 174.085938 120.707031 172.578125 126.640625 C 171.851562 129.484375 171.195312 132.347656 170.582031 135.226562 C 169.910156 138.40625 169.382812 141.601562 168.859375 144.796875 C 167.820312 151.160156 166.992188 157.550781 166.226562 163.945312 C 165.464844 170.300781 164.863281 176.679688 164.339844 183.058594 C 163.292969 195.757812 162.734375 208.492188 162.507812 221.230469 C 162.417969 226.046875 162.378906 230.871094 162.378906 235.679688 C 162.378906 240.296875 162.425781 244.910156 162.492188 249.53125 C 162.4375 249.230469 162.382812 248.941406 162.332031 248.648438 C 161.699219 245.386719 161.070312 242.113281 160.441406 238.855469 C 157.945312 225.90625 155.324219 212.960938 152.136719 200.15625 C 149.421875 189.285156 146.195312 178.542969 142.132812 168.097656 C 138.378906 158.433594 133.863281 149.09375 128.523438 140.21875 C 128.789062 139.773438 129.050781 139.324219 129.300781 138.863281 C 129.722656 138.09375 130.140625 137.3125 130.554688 136.527344 C 131.375 134.957031 132.132812 133.367188 132.847656 131.746094 C 134.238281 128.617188 135.359375 125.378906 136.105469 122.035156 C 136.855469 118.632812 137.25 115.144531 137.140625 111.65625 C 137.085938 110.214844 136.964844 108.773438 136.828125 107.34375 C 136.679688 105.773438 136.503906 104.214844 136.292969 102.65625 C 135.644531 97.929688 134.765625 93.234375 133.601562 88.617188 C 133.039062 86.367188 132.382812 84.140625 131.644531 81.945312 C 131.273438 80.839844 130.859375 79.75 130.433594 78.660156 C 130.0625 77.703125 129.675781 76.742188 129.175781 75.847656 C 128.929688 75.414062 128.476562 75.136719 127.976562 75.125 C 127.378906 75.105469 126.710938 75.523438 126.582031 76.132812 C 126.480469 76.558594 126.324219 76.972656 126.175781 77.378906 C 126.007812 77.867188 125.816406 78.339844 125.632812 78.816406 C 125.296875 79.675781 124.929688 80.523438 124.558594 81.355469 C 123.144531 84.523438 121.640625 87.675781 119.976562 90.722656 C 118.894531 92.6875 117.648438 94.578125 116.476562 96.484375 C 115.082031 98.75 113.730469 101.042969 112.605469 103.449219 C 111.523438 105.75 110.617188 108.136719 110.285156 110.667969 C 110.21875 111.148438 110.183594 111.636719 110.183594 112.125 C 110.183594 112.328125 110.210938 112.53125 110.222656 112.734375 C 106.675781 111.035156 102.894531 109.855469 99.105469 108.828125 C 94.339844 107.546875 89.535156 106.4375 84.808594 105.019531 C 84.464844 104.917969 84.078125 105.011719 83.816406 105.265625 C 83.613281 105.46875 83.515625 105.71875 83.515625 105.996094 C 83.515625 106.070312 83.523438 106.152344 83.539062 106.234375 C 84.613281 112.113281 87.132812 117.707031 90.503906 122.609375 C 93.945312 127.628906 98.324219 132.066406 103.597656 135.140625 C 106.675781 136.929688 110.074219 138.269531 113.59375 138.851562 C 115.386719 139.148438 117.179688 139.277344 119 139.171875 C 120.429688 139.082031 121.871094 138.878906 123.257812 138.5 C 123.292969 138.628906 123.347656 138.75 123.421875 138.863281 C 129.125 147.90625 133.851562 157.511719 137.761719 167.460938 C 142.492188 179.652344 145.957031 192.277344 148.847656 205.023438 C 151.765625 217.90625 154.066406 230.917969 156.746094 243.855469 C 157.34375 246.71875 157.972656 249.578125 158.636719 252.429688 C 159.324219 255.421875 160.097656 258.394531 160.820312 261.375 C 161.539062 264.324219 162.242188 267.277344 162.992188 270.222656 C 164.15625 305.570312 166.703125 340.886719 168.164062 376.21875 C 168.175781 376.539062 168.183594 376.851562 168.199219 377.160156 C 167.703125 374.445312 167.203125 371.730469 166.714844 369.011719 C 166.195312 366.113281 165.722656 363.207031 165.242188 360.304688 C 164.304688 354.714844 163.296875 349.148438 162.148438 343.59375 C 159.839844 332.40625 156.902344 321.3125 152.828125 310.621094 C 150.816406 305.355469 148.484375 300.199219 145.828125 295.222656 C 143.5 290.851562 140.828125 286.667969 137.984375 282.609375 C 127.203125 267.261719 113.554688 254.046875 104.019531 237.8125 C 101.460938 233.382812 99.21875 228.769531 97.464844 223.960938 C 97.222656 223.304688 96.402344 223.011719 95.78125 223.277344 C 95.28125 223.496094 95.007812 223.960938 95.007812 224.464844 C 95.007812 224.53125 95.042969 224.605469 95.050781 224.679688 C 94.957031 224.792969 94.859375 224.910156 94.800781 225.046875 C 94.71875 225.242188 94.683594 225.425781 94.683594 225.609375 C 94.683594 225.832031 94.730469 226.046875 94.804688 226.277344 C 94.976562 226.847656 95.132812 227.421875 95.292969 227.992188 C 97.046875 234.582031 97.960938 241.335938 98.726562 248.101562 C 99.496094 254.976562 100.140625 261.871094 101.308594 268.691406 C 102.453125 275.371094 104.316406 281.871094 106.570312 288.246094 " fill-opacity="1" fill-rule="nonzero"/></g></svg>